<svg xmlns="http://www.w3.org/2000/svg" version="1.1" viewBox="0 0 118.218725865333 210.23416378127618" width="118.218725865333" height="210.23416378127618">
  <!-- svg-source:excalidraw -->
  
  <defs>
    <style class="style-fonts">
      
    </style>
    
  </defs>
  <rect x="0" y="0" width="118.218725865333" height="210.23416378127618" fill="#ffffff"/><g transform="translate(45.15196504654023 26.542101198371824) rotate(0 -9.821872586533345 20.677626497964823)" stroke="none"><path fill="#e9ecef" d="M 0.55,0.65 Q 0.55,0.65 -9.44,9.39 -19.44,18.14 -23.37,22.64 -27.30,27.14 -28.92,29.85 -30.55,32.55 -30.60,34.98 -30.64,37.40 -29.53,40.40 -28.42,43.40 -26.81,45.83 -25.19,48.25 -23.29,50.23 -21.38,52.20 -21.32,52.34 -21.25,52.48 -21.22,52.63 -21.18,52.78 -21.19,52.93 -21.19,53.08 -21.23,53.23 -21.27,53.38 -21.35,53.51 -21.42,53.65 -21.53,53.76 -21.63,53.87 -21.76,53.95 -21.89,54.04 -22.03,54.09 -22.17,54.14 -22.33,54.15 -22.48,54.17 -22.63,54.15 -22.78,54.12 -22.92,54.06 -23.06,54.01 -23.19,53.92 -23.31,53.83 -23.41,53.71 -23.51,53.59 -12.60,39.67 -1.69,25.75 2.58,19.05 6.87,12.35 8.04,8.75 9.21,5.15 9.11,2.92 9.02,0.69 8.18,-0.66 7.34,-2.02 6.14,-3.50 4.94,-4.98 3.41,-5.79 1.88,-6.59 -0.11,-6.93 -2.10,-7.27 -3.99,-6.85 -5.87,-6.43 -7.62,-5.97 -9.37,-5.50 -10.89,-4.76 -12.41,-4.02 -13.53,-2.91 -14.65,-1.80 -15.73,-0.45 -16.81,0.89 -17.87,2.35 -18.93,3.81 -19.94,5.57 -20.95,7.34 -21.96,9.54 -22.97,11.74 -23.66,14.65 -24.35,17.56 -24.96,20.32 -25.57,23.08 -25.81,26.24 -26.06,29.41 -25.87,31.86 -25.68,34.32 -25.05,36.13 -24.41,37.94 -23.57,39.58 -22.73,41.22 -21.51,43.06 -20.29,44.91 -18.70,46.17 -17.12,47.42 -15.31,48.55 -13.50,49.67 -11.49,49.79 -9.49,49.90 -7.57,49.42 -5.64,48.94 -3.48,47.34 -1.31,45.75 0.60,44.43 2.52,43.10 4.11,41.45 5.70,39.80 6.89,37.44 8.09,35.08 9.23,32.84 10.38,30.59 11.10,26.26 11.81,21.94 12.14,17.12 12.46,12.30 12.30,8.82 12.14,5.34 11.50,2.47 10.86,-0.39 9.74,-2.69 8.63,-4.99 7.05,-6.76 5.47,-8.52 3.69,-9.83 1.90,-11.14 -0.02,-12.29 -1.95,-13.44 -3.78,-13.87 -5.61,-14.29 -8.35,-14.19 -11.10,-14.09 -13.36,-13.49 -15.62,-12.89 -17.63,-11.53 -19.63,-10.18 -21.31,-8.22 -22.99,-6.26 -23.94,-3.78 -24.89,-1.31 -25.93,1.57 -26.97,4.46 -27.68,8.55 -28.40,12.64 -28.70,17.32 -29.01,22.00 -28.85,25.73 -28.68,29.45 -28.32,32.50 -27.96,35.54 -27.23,38.24 -26.50,40.94 -25.89,43.00 -25.28,45.06 -24.19,46.98 -23.11,48.90 -21.26,50.81 -19.40,52.72 -17.29,53.74 -15.18,54.77 -13.27,54.90 -11.35,55.03 -9.38,54.82 -7.42,54.60 -5.49,53.95 -3.56,53.30 -1.56,52.45 0.43,51.59 2.30,49.86 4.17,48.13 5.54,46.26 6.91,44.40 8.04,41.64 9.16,38.88 9.64,36.02 10.11,33.15 10.62,30.09 11.14,27.02 11.05,24.38 10.96,21.74 10.64,19.14 10.31,16.54 9.88,14.27 9.45,12.01 8.44,10.02 7.43,8.04 5.81,5.39 4.19,2.75 2.37,0.49 0.54,-1.75 -1.63,-3.52 -3.81,-5.30 -5.33,-6.36 -6.84,-7.42 -7.84,-7.79 -8.83,-8.16 -11.05,-7.90 -13.26,-7.63 -13.37,-7.62 -13.47,-7.61 -13.57,-7.63 -13.68,-7.66 -13.77,-7.71 -13.86,-7.77 -13.93,-7.85 -14.00,-7.93 -14.04,-8.03 -14.08,-8.13 -14.08,-8.23 -14.09,-8.34 -14.06,-8.44 -14.03,-8.54 -13.97,-8.63 -13.91,-8.72 -13.83,-8.78 -13.74,-8.85 -13.64,-8.88 -13.54,-8.91 -13.44,-8.91 -13.33,-8.91 -13.23,-8.88 -13.13,-8.85 -13.04,-8.78 -12.96,-8.72 -12.90,-8.63 -12.84,-8.54 -12.81,-8.44 -12.78,-8.34 -12.79,-8.23 -12.79,-8.12 -12.83,-8.03 -12.87,-7.93 -12.94,-7.85 -13.01,-7.77 -13.10,-7.71 -13.19,-7.66 -13.30,-7.63 -13.40,-7.61 -13.51,-7.62 -13.61,-7.63 -13.71,-7.68 -13.80,-7.72 -13.88,-7.80 -13.96,-7.87 -14.01,-7.96 -14.06,-8.06 -14.07,-8.16 -14.09,-8.27 -14.07,-8.37 -14.06,-8.48 -14.01,-8.57 -13.96,-8.66 -13.88,-8.74 -13.80,-8.81 -13.71,-8.85 -13.61,-8.90 -13.61,-8.90 -13.61,-8.90 -10.86,-10.01 -8.11,-11.12 -6.58,-10.56 -5.06,-10.00 -3.44,-8.86 -1.82,-7.72 0.57,-5.73 2.97,-3.73 4.92,-1.30 6.87,1.12 8.55,3.89 10.23,6.66 11.37,9.03 12.51,11.40 12.95,13.78 13.40,16.16 13.73,18.91 14.07,21.65 14.14,24.59 14.20,27.53 13.68,30.60 13.16,33.68 12.59,36.87 12.03,40.06 10.71,43.14 9.40,46.23 7.82,48.32 6.24,50.42 3.97,52.41 1.69,54.40 -0.45,55.32 -2.60,56.23 -4.85,56.95 -7.10,57.67 -9.36,57.88 -11.62,58.09 -14.06,57.81 -16.50,57.54 -19.04,56.21 -21.58,54.88 -23.68,52.65 -25.78,50.41 -27.00,48.18 -28.22,45.95 -28.85,43.84 -29.47,41.74 -30.24,38.82 -31.01,35.91 -31.38,32.75 -31.75,29.58 -31.92,25.69 -32.08,21.80 -31.75,16.95 -31.43,12.11 -30.65,7.77 -29.87,3.43 -28.81,0.48 -27.74,-2.46 -26.54,-5.35 -25.33,-8.23 -23.33,-10.48 -21.34,-12.73 -18.89,-14.29 -16.44,-15.84 -13.82,-16.50 -11.20,-17.16 -8.05,-17.22 -4.90,-17.28 -2.65,-16.68 -0.40,-16.09 1.66,-14.85 3.73,-13.60 5.75,-12.07 7.77,-10.55 9.57,-8.44 11.37,-6.33 12.60,-3.69 13.83,-1.06 14.51,2.06 15.19,5.20 15.34,8.85 15.49,12.51 15.14,17.48 14.80,22.46 13.94,27.19 13.08,31.92 11.91,34.20 10.75,36.48 9.31,39.17 7.86,41.87 6.04,43.71 4.22,45.56 2.31,46.87 0.40,48.18 -2.24,49.99 -4.89,51.80 -7.30,52.33 -9.71,52.85 -12.32,52.55 -14.92,52.24 -16.96,50.98 -18.99,49.71 -20.86,48.14 -22.73,46.57 -24.05,44.56 -25.36,42.56 -26.28,40.72 -27.20,38.89 -27.91,36.73 -28.62,34.56 -28.81,31.87 -28.99,29.18 -28.72,25.82 -28.44,22.45 -27.83,19.66 -27.21,16.86 -26.42,13.69 -25.63,10.52 -24.56,8.20 -23.48,5.87 -22.39,3.99 -21.29,2.10 -20.18,0.58 -19.07,-0.93 -17.86,-2.42 -16.65,-3.90 -15.18,-5.25 -13.70,-6.60 -11.91,-7.45 -10.12,-8.30 -8.27,-8.78 -6.42,-9.27 -4.04,-9.69 -1.65,-10.11 0.79,-9.62 3.24,-9.12 5.18,-7.98 7.12,-6.83 8.48,-5.13 9.84,-3.42 10.84,-1.47 11.83,0.47 11.87,3.23 11.90,5.98 10.57,9.92 9.24,13.85 4.84,20.69 0.44,27.53 -10.47,39.87 -21.38,52.20 -21.32,52.34 -21.25,52.48 -21.22,52.63 -21.18,52.78 -21.19,52.93 -21.19,53.08 -21.23,53.23 -21.27,53.38 -21.35,53.51 -21.42,53.65 -21.52,53.76 -21.63,53.87 -21.76,53.95 -21.89,54.04 -22.03,54.09 -22.17,54.14 -22.33,54.15 -22.48,54.17 -22.63,54.15 -22.78,54.12 -22.92,54.06 -23.06,54.01 -23.19,53.92 -23.31,53.83 -23.41,53.71 -23.51,53.59 -25.40,51.61 -27.30,49.63 -29.03,46.94 -30.76,44.24 -31.91,40.80 -33.07,37.35 -32.86,34.40 -32.65,31.45 -30.88,28.50 -29.11,25.55 -25.04,20.94 -20.98,16.33 -10.76,7.84 -0.55,-0.65 -0.46,-0.70 -0.38,-0.76 -0.28,-0.79 -0.18,-0.83 -0.08,-0.84 0.01,-0.85 0.11,-0.84 0.22,-0.82 0.31,-0.78 0.41,-0.75 0.49,-0.68 0.57,-0.62 0.64,-0.55 0.71,-0.47 0.75,-0.38 0.80,-0.28 0.82,-0.18 0.85,-0.08 0.84,0.01 0.84,0.11 0.82,0.21 0.79,0.31 0.74,0.40 0.69,0.49 0.62,0.57 0.55,0.65 0.55,0.65 L 0.55,0.65 Z"/></g><g transform="translate(39.982558422049124 81.33781141797857) rotate(0 -3.61858463714384 23.779270472659505)" stroke="none"><path fill="#e9ecef" d="M 0.77,-0.25 Q 0.77,-0.25 3.24,6.84 5.71,13.94 7.32,18.14 8.93,22.34 9.92,25.02 10.92,27.71 11.66,29.74 12.40,31.77 12.73,32.96 13.05,34.16 13.21,34.36 13.37,34.56 13.39,34.70 13.41,34.84 13.39,34.98 13.37,35.13 13.33,35.26 13.28,35.40 13.20,35.52 13.12,35.64 13.01,35.73 12.90,35.83 12.78,35.90 12.65,35.97 12.51,36.00 12.37,36.04 12.23,36.04 12.08,36.04 11.94,36.01 11.80,35.98 11.67,35.91 11.55,35.85 11.44,35.75 11.33,35.66 11.24,35.54 11.16,35.43 11.11,35.29 11.06,35.16 10.81,34.37 10.57,33.59 10.16,32.03 9.75,30.48 9.28,28.64 8.81,26.79 8.31,24.82 7.81,22.85 7.00,19.95 6.19,17.05 5.54,14.61 4.89,12.18 4.32,9.95 3.75,7.73 3.49,6.10 3.23,4.48 3.49,3.50 3.74,2.53 5.04,2.04 6.34,1.56 6.93,2.09 7.52,2.61 7.86,3.66 8.19,4.71 8.58,6.24 8.96,7.76 9.41,9.60 9.87,11.44 10.36,13.09 10.85,14.73 11.36,16.97 11.88,19.20 12.11,21.09 12.34,22.98 12.70,23.91 13.06,24.85 13.23,25.60 13.40,26.35 13.43,26.50 13.47,26.66 13.46,26.82 13.46,26.97 13.42,27.13 13.38,27.28 13.31,27.42 13.23,27.56 13.12,27.68 13.02,27.80 12.88,27.88 12.75,27.97 12.60,28.03 12.45,28.08 12.30,28.10 12.14,28.11 11.98,28.09 11.82,28.07 11.68,28.01 11.53,27.95 11.40,27.86 11.27,27.77 11.17,27.65 11.06,27.53 10.99,27.39 10.92,27.24 10.68,26.70 10.45,26.15 10.03,24.65 9.61,23.15 9.15,21.67 8.68,20.19 7.61,17.53 6.54,14.86 5.48,12.22 4.42,9.58 3.66,7.22 2.90,4.87 2.30,3.33 1.70,1.79 1.16,0.57 0.62,-0.65 0.38,-0.90 0.13,-1.16 0.08,-1.31 0.03,-1.47 0.02,-1.64 0.02,-1.80 0.05,-1.96 0.08,-2.12 0.15,-2.27 0.21,-2.42 0.32,-2.55 0.42,-2.68 0.55,-2.78 0.68,-2.88 0.83,-2.95 0.98,-3.02 1.14,-3.04 1.31,-3.07 1.47,-3.06 1.64,-3.05 1.79,-3.00 1.95,-2.95 2.09,-2.86 2.23,-2.78 2.35,-2.66 2.46,-2.54 2.55,-2.40 2.63,-2.26 2.88,-0.70 3.13,0.85 3.78,2.81 4.43,4.77 5.31,7.44 6.19,10.10 7.17,13.33 8.14,16.56 9.13,19.06 10.12,21.57 10.58,23.65 11.04,25.73 11.50,27.17 11.96,28.61 11.87,28.84 11.77,29.08 11.81,29.24 11.84,29.40 11.83,29.57 11.83,29.74 11.78,29.89 11.74,30.05 11.65,30.20 11.57,30.34 11.46,30.46 11.34,30.58 11.20,30.67 11.06,30.76 10.90,30.81 10.75,30.86 10.58,30.87 10.42,30.89 10.25,30.86 10.09,30.83 9.94,30.77 9.79,30.70 9.65,30.61 9.52,30.51 9.42,30.38 9.31,30.25 9.24,30.10 9.17,29.95 8.82,28.55 8.46,27.14 7.76,25.48 7.05,23.81 6.41,21.49 5.77,19.17 5.20,16.71 4.64,14.25 4.13,12.98 3.62,11.72 3.65,10.56 3.68,9.41 3.71,9.35 3.73,9.29 3.77,9.13 3.80,8.96 3.87,8.81 3.94,8.66 4.05,8.53 4.16,8.40 4.29,8.30 4.42,8.20 4.58,8.13 4.73,8.07 4.90,8.04 5.07,8.01 5.23,8.03 5.40,8.04 5.56,8.09 5.72,8.15 5.86,8.24 6.00,8.33 6.12,8.45 6.23,8.57 6.32,8.71 6.40,8.86 6.45,9.02 6.49,9.18 6.50,9.35 6.51,9.52 7.04,10.30 7.57,11.07 8.45,13.10 9.32,15.13 10.60,18.68 11.87,22.24 12.99,25.21 14.11,28.18 14.90,30.67 15.69,33.16 16.31,34.78 16.93,36.41 16.89,37.08 16.86,37.75 16.90,37.92 16.94,38.08 16.94,38.25 16.94,38.42 16.90,38.58 16.86,38.75 16.78,38.90 16.71,39.05 16.59,39.17 16.48,39.30 16.34,39.40 16.21,39.49 16.05,39.56 15.89,39.62 15.72,39.64 15.55,39.66 15.38,39.64 15.22,39.62 15.06,39.56 14.90,39.50 14.76,39.40 14.62,39.31 14.51,39.18 14.40,39.05 14.32,38.90 14.24,38.76 13.64,37.18 13.04,35.61 12.16,32.57 11.27,29.54 10.60,26.15 9.93,22.77 9.07,19.62 8.20,16.47 7.52,13.28 6.85,10.10 6.28,8.23 5.71,6.36 5.20,5.17 4.69,3.99 4.76,3.98 4.84,3.98 4.78,3.82 4.73,3.65 4.71,3.49 4.69,3.32 4.72,3.15 4.75,2.98 4.81,2.82 4.88,2.67 4.98,2.53 5.08,2.39 5.21,2.29 5.34,2.18 5.49,2.10 5.64,2.03 5.81,1.99 5.97,1.96 6.14,1.96 6.31,1.97 6.48,2.01 6.64,2.06 6.79,2.14 6.93,2.23 7.06,2.34 7.18,2.46 7.27,2.60 7.37,2.74 7.46,3.84 7.56,4.93 8.14,6.90 8.72,8.87 9.58,11.85 10.43,14.84 11.97,19.65 13.52,24.47 14.77,28.30 16.02,32.14 17.44,36.13 18.86,40.12 19.76,42.72 20.67,45.32 21.34,46.99 22.01,48.66 22.30,49.71 22.59,50.76 23.03,51.23 23.47,51.70 23.50,51.87 23.53,52.03 23.51,52.20 23.50,52.37 23.44,52.53 23.39,52.69 23.30,52.84 23.21,52.98 23.08,53.10 22.96,53.21 22.81,53.30 22.66,53.38 22.50,53.43 22.34,53.47 22.17,53.48 22.00,53.49 21.83,53.45 21.67,53.42 21.51,53.34 21.36,53.27 21.23,53.16 21.10,53.05 21.00,52.92 20.90,52.78 20.83,52.62 20.76,52.47 20.57,50.95 20.37,49.44 20.06,47.51 19.75,45.58 19.03,42.70 18.31,39.83 17.70,37.08 17.09,34.33 16.26,32.06 15.44,29.80 14.76,27.57 14.09,25.35 13.52,23.54 12.94,21.72 12.42,20.40 11.89,19.08 11.35,17.59 10.82,16.09 10.28,13.91 9.73,11.73 9.23,10.30 8.73,8.87 8.23,7.68 7.73,6.49 7.47,5.25 7.21,4.00 6.88,3.40 6.54,2.79 6.31,1.69 6.09,0.58 5.75,-0.28 5.41,-1.15 5.28,-1.88 5.15,-2.61 4.70,-3.22 4.25,-3.84 3.57,-4.19 2.89,-4.54 3.20,-4.07 3.50,-3.60 3.10,-2.83 2.70,-2.06 2.88,-1.11 3.07,-0.16 3.03,-0.00 2.99,0.16 2.91,0.31 2.83,0.46 2.72,0.59 2.61,0.72 2.47,0.82 2.33,0.92 2.17,0.98 2.01,1.04 1.84,1.07 1.67,1.09 1.50,1.07 1.34,1.05 1.17,0.99 1.01,0.93 0.87,0.84 0.73,0.74 0.62,0.62 0.50,0.49 0.42,0.34 0.34,0.19 0.30,0.02 0.26,-0.13 0.25,-0.30 0.25,-0.47 0.90,-0.59 1.54,-0.72 2.13,-0.69 2.72,-0.67 2.15,-0.09 1.59,0.48 1.12,0.92 0.66,1.37 0.16,1.85 -0.33,2.34 -1.13,3.15 -1.93,3.95 -2.58,4.59 -3.22,5.23 -4.19,5.89 -5.17,6.55 -6.34,7.62 -7.52,8.69 -8.34,9.46 -9.16,10.23 -10.20,10.93 -11.24,11.63 -12.28,12.23 -13.32,12.82 -13.96,13.31 -14.61,13.80 -15.18,14.30 -15.75,14.80 -16.49,15.14 -17.23,15.48 -17.84,16.25 -18.44,17.02 -18.59,17.11 -18.75,17.19 -18.92,17.24 -19.09,17.29 -19.26,17.29 -19.44,17.30 -19.61,17.26 -19.78,17.23 -19.94,17.15 -20.09,17.07 -20.23,16.96 -20.36,16.85 -20.47,16.71 -20.57,16.57 -20.64,16.40 -20.70,16.24 -20.73,16.07 -20.76,15.90 -20.74,15.72 -20.73,15.55 -20.67,15.38 -20.61,15.22 -20.52,15.07 -20.42,14.92 -20.29,14.80 -20.17,14.68 -19.40,15.75 -18.63,16.82 -18.79,16.91 -18.94,17.00 -19.11,17.04 -19.28,17.09 -19.45,17.09 -19.63,17.10 -19.80,17.06 -19.97,17.03 -20.13,16.95 -20.29,16.87 -20.42,16.76 -20.56,16.65 -20.66,16.51 -20.76,16.37 -20.83,16.20 -20.90,16.04 -20.92,15.87 -20.95,15.70 -20.93,15.52 -20.92,15.35 -20.86,15.18 -20.80,15.01 -20.71,14.87 -20.61,14.72 -20.49,14.60 -20.36,14.48 -19.25,15.44 -18.14,16.39 -17.89,17.37 -17.65,18.34 -16.89,18.24 -16.14,18.14 -15.52,17.96 -14.89,17.77 -14.20,17.58 -13.50,17.39 -12.85,16.96 -12.19,16.53 -11.74,15.77 -11.28,15.00 -10.45,13.73 -9.62,12.45 -8.63,11.26 -7.64,10.07 -6.67,8.73 -5.71,7.40 -5.02,6.27 -4.33,5.14 -3.68,4.28 -3.04,3.43 -2.46,2.77 -1.88,2.10 -1.17,2.33 -0.46,2.56 -1.42,3.17 -2.38,3.79 -3.30,4.24 -4.21,4.70 -5.07,5.41 -5.93,6.12 -6.91,7.02 -7.89,7.92 -9.26,8.96 -10.64,10.00 -11.75,10.98 -12.86,11.96 -13.56,12.89 -14.25,13.83 -15.30,14.68 -16.35,15.54 -17.29,16.42 -18.23,17.30 -18.94,17.97 -19.64,18.64 -20.14,19.41 -20.65,20.19 -21.24,20.91 -21.83,21.64 -22.38,22.25 -22.94,22.87 -23.46,23.41 -23.99,23.96 -24.71,24.79 -25.43,25.62 -25.39,26.44 -25.35,27.27 -24.85,28.49 -24.36,29.71 -23.87,30.39 -23.37,31.08 -22.88,31.65 -22.39,32.23 -21.89,32.76 -21.39,33.30 -20.88,33.83 -20.37,34.35 -19.86,34.87 -19.34,35.39 -18.53,36.21 -17.72,37.02 -17.07,37.67 -16.43,38.32 -15.77,39.30 -15.10,40.28 -14.53,41.29 -13.97,42.30 -13.51,42.91 -13.06,43.52 -12.52,43.46 -11.98,43.41 -11.84,43.52 -11.70,43.63 -11.58,43.77 -11.47,43.90 -11.39,44.07 -11.31,44.23 -11.28,44.41 -11.24,44.58 -11.25,44.76 -11.26,44.94 -11.31,45.11 -11.36,45.29 -11.45,45.44 -11.54,45.60 -11.66,45.73 -11.78,45.86 -11.94,45.95 -12.09,46.05 -12.26,46.11 -12.43,46.16 -12.61,46.18 -12.79,46.19 -12.97,46.16 -13.14,46.14 -13.31,46.07 -13.47,45.99 -14.38,44.64 -15.28,43.29 -15.73,42.33 -16.18,41.37 -16.67,40.37 -17.16,39.37 -17.69,37.99 -18.22,36.60 -18.74,35.13 -19.26,33.66 -19.78,32.14 -20.30,30.63 -20.80,29.44 -21.30,28.25 -21.83,26.80 -22.35,25.35 -22.85,24.20 -23.35,23.04 -23.82,22.34 -24.28,21.63 -24.58,20.83 -24.87,20.04 -24.91,19.49 -24.94,18.94 -24.03,18.88 -23.12,18.82 -23.19,19.45 -23.27,20.08 -23.41,20.79 -23.55,21.51 -23.99,22.00 -24.42,22.48 -25.88,22.94 -27.34,23.40 -27.80,22.40 -28.26,21.40 -27.96,20.32 -27.66,19.23 -26.92,17.64 -26.18,16.06 -25.22,14.70 -24.25,13.35 -23.29,11.94 -22.32,10.54 -21.27,9.28 -20.21,8.03 -18.80,6.83 -17.39,5.64 -15.67,4.01 -13.96,2.39 -12.27,1.04 -10.59,-0.29 -8.97,-1.45 -7.36,-2.62 -6.14,-3.67 -4.91,-4.71 -4.09,-5.45 -3.27,-6.20 -2.23,-6.89 -1.19,-7.58 -0.14,-8.16 0.89,-8.75 1.74,-9.05 2.60,-9.34 3.20,-9.44 3.80,-9.54 3.98,-9.58 4.16,-9.62 4.34,-9.61 4.52,-9.60 4.69,-9.55 4.87,-9.50 5.02,-9.41 5.18,-9.32 5.31,-9.19 5.44,-9.06 5.54,-8.91 5.63,-8.76 5.69,-8.58 5.75,-8.41 5.76,-8.23 5.77,-8.05 5.74,-7.87 5.71,-7.69 5.64,-7.53 5.57,-7.36 5.46,-7.22 5.35,-7.07 5.21,-6.96 5.07,-6.84 4.91,-6.77 4.74,-6.69 4.45,-5.57 4.17,-4.45 3.17,-3.66 2.17,-2.86 1.26,-2.03 0.35,-1.20 -0.62,-0.25 -1.61,0.69 -2.92,1.98 -4.23,3.28 -6.31,5.06 -8.40,6.84 -10.14,8.45 -11.87,10.06 -13.73,12.45 -15.59,14.84 -16.99,16.76 -18.39,18.69 -19.58,20.39 -20.77,22.10 -21.87,23.72 -22.97,25.33 -24.14,26.44 -25.31,27.55 -25.96,28.46 -26.62,29.38 -27.19,30.33 -27.77,31.29 -27.95,32.10 -28.13,32.90 -27.93,33.64 -27.74,34.37 -27.43,34.90 -27.12,35.44 -26.66,36.35 -26.21,37.25 -25.50,38.11 -24.79,38.96 -24.07,40.41 -23.35,41.85 -22.56,42.88 -21.77,43.91 -21.03,45.42 -20.29,46.92 -19.49,47.98 -18.68,49.04 -17.75,50.08 -16.83,51.13 -16.13,51.88 -15.43,52.63 -14.88,53.21 -14.34,53.80 -13.77,53.89 -13.20,53.98 -13.96,53.44 -14.71,52.90 -15.34,51.86 -15.97,50.82 -16.83,49.18 -17.69,47.54 -18.58,46.37 -19.47,45.19 -20.25,43.64 -21.02,42.08 -21.57,41.26 -22.12,40.44 -22.91,39.53 -23.70,38.63 -24.13,37.80 -24.56,36.97 -25.04,36.63 -25.52,36.29 -25.59,36.12 -25.65,35.94 -25.67,35.76 -25.69,35.57 -25.66,35.39 -25.64,35.20 -25.57,35.03 -25.50,34.85 -25.39,34.70 -25.28,34.55 -25.14,34.43 -25.00,34.31 -24.83,34.22 -24.67,34.14 -24.49,34.10 -24.30,34.06 -24.12,34.06 -23.93,34.06 -23.75,34.11 -23.57,34.16 -23.41,34.25 -23.24,34.34 -23.11,34.46 -22.97,34.59 -22.86,34.74 -22.76,34.90 -21.64,35.89 -20.52,36.89 -19.60,38.22 -18.67,39.56 -17.69,41.02 -16.70,42.47 -15.69,43.98 -14.68,45.49 -13.65,47.03 -12.63,48.56 -11.93,49.47 -11.22,50.37 -10.32,51.37 -9.41,52.37 -9.32,52.53 -9.22,52.69 -9.17,52.87 -9.11,53.05 -9.10,53.23 -9.09,53.42 -9.13,53.60 -9.16,53.79 -9.24,53.96 -9.32,54.13 -9.43,54.27 -9.55,54.42 -9.70,54.53 -9.85,54.65 -10.02,54.72 -10.19,54.80 -10.37,54.83 -10.56,54.86 -10.74,54.85 -10.93,54.84 -11.11,54.78 -11.29,54.73 -11.44,54.63 -11.60,54.53 -11.73,54.40 -11.87,54.26 -11.87,53.48 -11.86,52.70 -12.54,51.61 -13.21,50.53 -13.14,49.07 -13.07,47.61 -11.39,46.81 -9.71,46.01 -9.62,45.96 -9.53,45.90 -9.42,45.88 -9.32,45.86 -9.21,45.88 -9.11,45.89 -9.01,45.94 -8.92,45.99 -8.84,46.06 -8.77,46.14 -8.72,46.23 -8.67,46.33 -8.66,46.43 -8.64,46.54 -8.66,46.64 -8.68,46.75 -8.74,46.84 -8.79,46.93 -8.87,47.00 -8.95,47.07 -9.04,47.11 -9.14,47.16 -9.25,47.17 -9.35,47.17 -9.46,47.15 -9.56,47.12 -9.65,47.07 -9.74,47.01 -9.80,46.93 -9.87,46.84 -9.91,46.74 -9.94,46.64 -9.95,46.54 -9.95,46.43 -9.92,46.33 -9.89,46.23 -9.83,46.14 -9.76,46.06 -9.68,45.99 -9.59,45.93 -9.49,45.90 -9.39,45.87 -9.28,45.87 -9.18,45.87 -9.08,45.91 -8.98,45.95 -8.89,46.01 -8.81,46.08 -8.75,46.17 -8.70,46.26 -8.67,46.36 -8.65,46.47 -8.65,46.57 -8.66,46.68 -8.70,46.77 -8.75,46.87 -8.82,46.95 -8.89,47.03 -8.89,47.03 -8.89,47.03 -9.64,48.13 -10.39,49.24 -9.97,50.16 -9.54,51.08 -9.48,51.72 -9.41,52.37 -9.32,52.53 -9.22,52.69 -9.17,52.87 -9.11,53.05 -9.10,53.23 -9.09,53.42 -9.13,53.60 -9.16,53.79 -9.24,53.96 -9.32,54.13 -9.43,54.27 -9.55,54.42 -9.70,54.53 -9.85,54.65 -10.02,54.72 -10.19,54.80 -10.37,54.83 -10.56,54.86 -10.74,54.85 -10.93,54.84 -11.11,54.78 -11.29,54.73 -11.44,54.63 -11.60,54.53 -11.73,54.40 -11.87,54.26 -12.77,53.27 -13.68,52.27 -14.44,51.28 -15.20,50.28 -16.23,48.75 -17.25,47.22 -18.26,45.72 -19.27,44.21 -20.25,42.77 -21.22,41.32 -22.12,40.03 -23.01,38.74 -23.58,37.90 -24.16,37.07 -24.84,36.68 -25.52,36.29 -25.59,36.12 -25.65,35.94 -25.67,35.76 -25.69,35.57 -25.66,35.39 -25.64,35.20 -25.57,35.03 -25.50,34.85 -25.39,34.70 -25.28,34.55 -25.14,34.43 -25.00,34.31 -24.83,34.22 -24.67,34.14 -24.49,34.10 -24.30,34.06 -24.12,34.06 -23.93,34.06 -23.75,34.11 -23.57,34.16 -23.41,34.25 -23.24,34.34 -23.11,34.46 -22.97,34.59 -22.86,34.74 -22.76,34.90 -22.34,35.16 -21.93,35.43 -21.64,36.03 -21.35,36.63 -20.44,37.68 -19.54,38.74 -18.89,39.73 -18.25,40.72 -17.62,42.04 -16.99,43.35 -15.98,44.73 -14.96,46.10 -14.14,47.67 -13.32,49.24 -12.78,50.14 -12.24,51.05 -11.46,52.19 -10.67,53.34 -10.59,54.41 -10.51,55.48 -11.31,56.26 -12.12,57.03 -13.11,56.96 -14.11,56.89 -15.24,56.45 -16.37,56.01 -17.02,55.36 -17.67,54.70 -18.39,53.92 -19.11,53.14 -20.11,52.00 -21.12,50.85 -22.07,49.55 -23.02,48.24 -23.61,46.98 -24.20,45.72 -25.13,44.45 -26.07,43.18 -26.61,42.01 -27.16,40.84 -28.03,39.74 -28.90,38.63 -29.35,37.72 -29.81,36.81 -30.26,35.88 -30.70,34.94 -30.88,33.61 -31.06,32.28 -30.71,31.02 -30.37,29.77 -29.71,28.68 -29.05,27.58 -28.21,26.47 -27.37,25.35 -26.41,24.49 -25.45,23.62 -24.35,22.00 -23.24,20.37 -22.04,18.64 -20.83,16.91 -19.40,14.94 -17.96,12.98 -15.94,10.42 -13.93,7.85 -12.14,6.20 -10.35,4.54 -8.35,2.84 -6.34,1.14 -5.02,-0.16 -3.69,-1.47 -2.68,-2.45 -1.66,-3.43 -0.65,-4.34 0.35,-5.25 1.06,-5.76 1.77,-6.26 2.25,-6.75 2.74,-7.24 3.27,-8.39 3.80,-9.54 3.98,-9.58 4.16,-9.62 4.34,-9.61 4.52,-9.60 4.69,-9.55 4.87,-9.50 5.02,-9.41 5.18,-9.32 5.31,-9.19 5.44,-9.06 5.54,-8.91 5.63,-8.76 5.69,-8.58 5.75,-8.41 5.76,-8.23 5.77,-8.05 5.74,-7.87 5.71,-7.69 5.64,-7.53 5.57,-7.36 5.46,-7.22 5.35,-7.07 5.21,-6.96 5.07,-6.84 4.91,-6.77 4.74,-6.69 4.14,-6.59 3.53,-6.49 2.94,-6.30 2.35,-6.12 1.40,-5.59 0.45,-5.06 -0.40,-4.51 -1.26,-3.96 -2.11,-3.19 -2.96,-2.42 -4.28,-1.30 -5.60,-0.18 -7.15,0.93 -8.71,2.06 -10.30,3.32 -11.89,4.57 -13.67,6.26 -15.46,7.95 -16.68,8.96 -17.91,9.98 -18.88,11.11 -19.84,12.25 -20.83,13.68 -21.81,15.11 -22.64,16.23 -23.46,17.35 -24.14,18.79 -24.82,20.24 -25.10,20.91 -25.37,21.59 -26.10,21.50 -26.83,21.42 -26.55,20.66 -26.27,19.91 -26.24,19.37 -26.21,18.84 -25.85,17.94 -25.50,17.03 -23.91,17.46 -22.33,17.88 -22.03,18.95 -21.74,20.03 -21.17,20.94 -20.60,21.84 -20.06,23.08 -19.53,24.32 -19.03,25.71 -18.52,27.09 -17.99,28.37 -17.46,29.66 -16.94,31.16 -16.43,32.66 -15.93,34.10 -15.42,35.53 -14.94,36.80 -14.46,38.06 -13.96,39.08 -13.47,40.11 -13.00,41.12 -12.52,42.14 -12.25,42.78 -11.98,43.41 -11.84,43.52 -11.70,43.63 -11.58,43.77 -11.47,43.90 -11.39,44.07 -11.31,44.23 -11.28,44.41 -11.24,44.58 -11.25,44.76 -11.26,44.94 -11.31,45.11 -11.36,45.29 -11.45,45.44 -11.54,45.60 -11.66,45.73 -11.78,45.86 -11.94,45.95 -12.09,46.05 -12.26,46.11 -12.43,46.16 -12.61,46.18 -12.79,46.19 -12.97,46.16 -13.14,46.14 -13.31,46.07 -13.47,45.99 -13.19,46.13 -12.90,46.27 -14.14,45.82 -15.37,45.36 -15.97,44.56 -16.57,43.76 -17.08,42.84 -17.59,41.92 -18.07,41.16 -18.55,40.41 -19.19,39.77 -19.83,39.13 -20.65,38.31 -21.47,37.48 -21.99,36.95 -22.51,36.42 -23.04,35.88 -23.57,35.33 -24.11,34.74 -24.66,34.16 -25.23,33.48 -25.80,32.81 -26.40,31.96 -26.99,31.11 -27.66,29.68 -28.32,28.25 -28.32,27.67 -28.32,27.09 -28.28,26.53 -28.24,25.97 -28.12,25.33 -28.00,24.69 -27.37,24.00 -26.75,23.31 -26.45,22.64 -26.15,21.98 -25.63,21.43 -25.11,20.89 -24.60,20.34 -24.09,19.78 -23.57,19.16 -23.05,18.55 -22.35,17.55 -21.65,16.55 -20.92,15.86 -20.18,15.17 -19.15,14.23 -18.11,13.30 -17.30,12.69 -16.49,12.08 -15.61,10.96 -14.73,9.84 -13.53,8.79 -12.32,7.74 -11.05,6.80 -9.79,5.86 -8.74,4.90 -7.69,3.94 -6.58,3.07 -5.48,2.20 -4.56,1.74 -3.64,1.28 -2.89,0.91 -2.14,0.53 -1.57,0.37 -1.01,0.22 -0.08,0.93 0.83,1.65 0.54,2.78 0.25,3.90 -0.27,4.51 -0.80,5.12 -1.36,5.86 -1.93,6.60 -2.68,7.83 -3.43,9.05 -4.45,10.46 -5.47,11.87 -6.36,12.93 -7.25,13.99 -8.05,15.23 -8.85,16.47 -9.42,17.42 -10.00,18.36 -10.86,19.17 -11.71,19.97 -12.60,20.13 -13.49,20.30 -14.31,20.67 -15.14,21.05 -15.73,21.05 -16.31,21.05 -16.87,21.02 -17.42,20.98 -18.05,20.86 -18.69,20.73 -19.33,20.05 -19.98,19.36 -20.39,18.90 -20.80,18.44 -20.91,17.19 -21.02,15.93 -19.83,16.38 -18.63,16.82 -18.79,16.91 -18.94,17.00 -19.11,17.04 -19.28,17.09 -19.45,17.09 -19.63,17.10 -19.80,17.06 -19.97,17.03 -20.13,16.95 -20.29,16.87 -20.42,16.76 -20.56,16.65 -20.66,16.51 -20.76,16.37 -20.83,16.20 -20.90,16.04 -20.92,15.87 -20.95,15.70 -20.93,15.52 -20.92,15.35 -20.86,15.18 -20.80,15.01 -20.71,14.87 -20.61,14.72 -20.49,14.60 -20.36,14.48 -19.40,15.75 -18.44,17.02 -18.59,17.11 -18.75,17.19 -18.92,17.24 -19.08,17.29 -19.26,17.29 -19.44,17.30 -19.61,17.26 -19.78,17.23 -19.94,17.15 -20.09,17.07 -20.23,16.96 -20.36,16.85 -20.47,16.71 -20.57,16.57 -20.64,16.40 -20.70,16.24 -20.73,16.07 -20.76,15.90 -20.74,15.72 -20.73,15.55 -20.67,15.38 -20.61,15.22 -20.52,15.07 -20.42,14.92 -20.29,14.80 -20.17,14.68 -19.96,14.25 -19.76,13.81 -18.68,13.20 -17.60,12.59 -16.97,12.04 -16.33,11.49 -15.54,10.90 -14.74,10.32 -13.78,9.78 -12.82,9.24 -11.97,8.69 -11.11,8.14 -10.27,7.35 -9.43,6.56 -8.08,5.37 -6.73,4.17 -5.97,3.69 -5.21,3.21 -4.58,2.57 -3.94,1.93 -3.12,1.13 -2.31,0.32 -1.79,-0.17 -1.28,-0.67 -0.77,-1.16 -0.26,-1.64 0.27,-2.10 0.81,-2.56 1.33,-2.77 1.85,-2.97 2.74,-2.62 3.63,-2.27 3.35,-1.22 3.07,-0.16 3.03,-0.00 2.99,0.16 2.91,0.31 2.83,0.46 2.72,0.59 2.61,0.72 2.47,0.82 2.33,0.92 2.17,0.98 2.01,1.04 1.84,1.07 1.67,1.09 1.50,1.07 1.34,1.05 1.18,0.99 1.01,0.93 0.87,0.84 0.73,0.74 0.62,0.62 0.50,0.49 0.42,0.34 0.34,0.19 0.30,0.02 0.26,-0.13 0.25,-0.30 0.25,-0.47 0.10,-0.40 -0.04,-0.32 -0.09,-1.23 -0.13,-2.14 0.07,-2.83 0.29,-3.53 0.55,-4.28 0.81,-5.02 1.05,-5.70 1.28,-6.37 1.81,-6.72 2.34,-7.07 3.83,-6.62 5.31,-6.16 5.99,-5.42 6.67,-4.68 7.19,-4.11 7.71,-3.54 7.89,-2.83 8.07,-2.13 8.47,-1.03 8.87,0.07 8.97,0.81 9.08,1.55 9.53,2.49 9.97,3.43 10.16,4.41 10.34,5.40 10.87,6.67 11.40,7.94 11.94,9.49 12.48,11.05 12.98,13.09 13.48,15.14 14.00,16.59 14.52,18.04 15.08,19.46 15.63,20.87 16.22,22.70 16.80,24.53 17.44,26.68 18.09,28.84 18.97,31.27 19.85,33.71 20.45,36.43 21.05,39.15 21.80,42.14 22.54,45.14 22.86,47.23 23.19,49.32 23.33,50.51 23.47,51.70 23.50,51.87 23.53,52.03 23.51,52.20 23.50,52.37 23.44,52.53 23.39,52.69 23.30,52.84 23.21,52.98 23.08,53.10 22.96,53.21 22.81,53.30 22.66,53.38 22.50,53.43 22.34,53.47 22.17,53.48 22.00,53.49 21.83,53.45 21.67,53.42 21.51,53.34 21.36,53.27 21.23,53.16 21.10,53.05 21.00,52.92 20.90,52.78 20.83,52.62 20.76,52.47 20.36,52.07 19.96,51.67 19.68,50.69 19.39,49.70 18.70,47.97 18.01,46.25 17.11,43.66 16.21,41.06 14.78,37.04 13.35,33.01 12.09,29.17 10.84,25.33 9.28,20.47 7.72,15.61 6.87,12.62 6.02,9.64 5.38,7.34 4.75,5.05 4.79,4.51 4.84,3.98 4.78,3.82 4.73,3.66 4.71,3.49 4.69,3.32 4.72,3.15 4.75,2.98 4.81,2.83 4.88,2.67 4.98,2.53 5.08,2.40 5.21,2.29 5.34,2.18 5.49,2.10 5.64,2.03 5.81,1.99 5.97,1.96 6.14,1.96 6.31,1.97 6.48,2.01 6.64,2.06 6.79,2.14 6.93,2.23 7.06,2.34 7.18,2.46 7.27,2.60 7.37,2.74 7.31,3.09 7.25,3.44 7.83,4.49 8.40,5.54 9.00,7.53 9.60,9.52 10.25,12.62 10.91,15.73 11.80,18.97 12.69,22.22 13.33,25.49 13.97,28.76 14.79,31.60 15.60,34.44 16.23,36.10 16.86,37.75 16.90,37.92 16.94,38.08 16.94,38.25 16.94,38.42 16.90,38.58 16.86,38.75 16.78,38.90 16.71,39.05 16.59,39.17 16.48,39.30 16.34,39.40 16.21,39.49 16.05,39.56 15.89,39.62 15.72,39.64 15.55,39.66 15.38,39.64 15.22,39.62 15.06,39.56 14.90,39.50 14.76,39.40 14.62,39.31 14.51,39.18 14.40,39.05 14.32,38.91 14.24,38.76 14.26,38.04 14.29,37.32 13.65,35.66 13.02,34.01 12.25,31.59 11.49,29.17 10.36,26.18 9.23,23.18 7.99,19.71 6.76,16.23 5.93,14.30 5.10,12.37 4.42,10.83 3.73,9.29 3.77,9.13 3.80,8.96 3.87,8.81 3.94,8.66 4.05,8.53 4.16,8.40 4.29,8.30 4.42,8.20 4.58,8.13 4.73,8.07 4.90,8.04 5.07,8.01 5.23,8.03 5.40,8.04 5.56,8.09 5.72,8.15 5.86,8.24 6.00,8.33 6.12,8.45 6.23,8.57 6.32,8.71 6.40,8.86 6.45,9.02 6.49,9.18 6.50,9.35 6.51,9.52 6.47,9.60 6.44,9.68 6.33,10.25 6.22,10.82 6.78,12.22 7.34,13.62 7.88,16.03 8.43,18.44 9.01,20.60 9.59,22.75 10.36,24.61 11.13,26.47 11.45,27.78 11.77,29.08 11.81,29.24 11.84,29.40 11.83,29.57 11.83,29.74 11.78,29.89 11.74,30.05 11.65,30.20 11.57,30.34 11.46,30.46 11.34,30.58 11.20,30.67 11.06,30.76 10.90,30.81 10.75,30.86 10.58,30.87 10.42,30.89 10.25,30.86 10.09,30.83 9.94,30.77 9.79,30.70 9.65,30.61 9.52,30.51 9.42,30.38 9.31,30.25 9.24,30.10 9.17,29.95 9.26,29.56 9.36,29.17 8.86,27.74 8.36,26.31 7.97,24.44 7.57,22.56 6.55,19.96 5.52,17.35 4.56,14.16 3.60,10.96 2.71,8.29 1.83,5.62 1.12,3.44 0.42,1.25 0.27,0.04 0.13,-1.16 0.08,-1.31 0.03,-1.47 0.02,-1.64 0.02,-1.80 0.05,-1.96 0.08,-2.12 0.15,-2.27 0.21,-2.42 0.32,-2.55 0.42,-2.68 0.55,-2.78 0.68,-2.88 0.83,-2.95 0.98,-3.02 1.14,-3.04 1.31,-3.07 1.47,-3.06 1.64,-3.05 1.79,-3.00 1.95,-2.95 2.09,-2.86 2.23,-2.78 2.35,-2.66 2.46,-2.54 2.55,-2.40 2.63,-2.26 2.86,-2.03 3.09,-1.81 3.67,-0.50 4.25,0.80 4.87,2.41 5.50,4.03 6.23,6.29 6.96,8.56 8.02,11.20 9.08,13.84 10.18,16.61 11.29,19.38 11.76,20.91 12.23,22.43 12.59,23.79 12.96,25.15 13.18,25.75 13.40,26.35 13.43,26.50 13.47,26.66 13.46,26.82 13.46,26.97 13.42,27.13 13.38,27.28 13.31,27.42 13.23,27.56 13.12,27.68 13.02,27.79 12.88,27.88 12.75,27.97 12.60,28.03 12.45,28.08 12.30,28.10 12.14,28.11 11.98,28.09 11.82,28.07 11.68,28.01 11.53,27.95 11.40,27.86 11.27,27.77 11.17,27.65 11.06,27.53 10.99,27.39 10.92,27.24 10.76,26.49 10.60,25.73 10.18,24.52 9.76,23.30 9.56,21.54 9.36,19.78 8.86,17.62 8.37,15.46 7.87,13.76 7.37,12.06 6.91,10.23 6.45,8.39 6.07,6.86 5.69,5.33 5.64,4.78 5.58,4.24 5.26,3.81 4.94,3.38 5.34,3.79 5.74,4.19 5.97,5.65 6.20,7.10 6.76,9.32 7.32,11.54 7.96,13.96 8.59,16.38 9.39,19.32 10.19,22.25 10.68,24.22 11.17,26.19 11.63,28.03 12.10,29.87 12.49,31.38 12.88,32.89 13.12,33.72 13.37,34.55 13.39,34.70 13.41,34.84 13.39,34.98 13.37,35.13 13.33,35.26 13.28,35.40 13.20,35.52 13.12,35.64 13.01,35.73 12.90,35.83 12.78,35.90 12.65,35.97 12.51,36.00 12.37,36.04 12.23,36.04 12.08,36.04 11.94,36.01 11.80,35.98 11.67,35.91 11.55,35.85 11.44,35.75 11.33,35.66 11.24,35.54 11.16,35.43 11.11,35.29 11.06,35.16 10.95,34.96 10.85,34.77 10.57,33.64 10.29,32.51 9.60,30.48 8.92,28.44 7.96,25.76 6.99,23.07 5.39,18.83 3.79,14.58 1.51,7.42 -0.77,0.25 -0.79,0.16 -0.81,0.06 -0.80,-0.03 -0.80,-0.13 -0.77,-0.22 -0.75,-0.32 -0.70,-0.40 -0.65,-0.49 -0.58,-0.56 -0.51,-0.63 -0.43,-0.68 -0.34,-0.73 -0.25,-0.76 -0.16,-0.79 -0.06,-0.80 0.03,-0.81 0.13,-0.79 0.22,-0.78 0.31,-0.74 0.40,-0.70 0.48,-0.64 0.56,-0.58 0.62,-0.51 0.69,-0.43 0.73,-0.34 0.77,-0.25 0.77,-0.25 L 0.77,-0.25 Z"/></g><g transform="translate(62.72794756981057 129.93023368819584) rotate(0 3.618584637143613 22.7453891477613)" stroke="none"><path fill="#e9ecef" d="M 0.27,0.74 Q 0.27,0.74 -5.28,3.05 -10.85,5.36 -13.56,6.25 -16.28,7.15 -17.65,7.81 -19.02,8.46 -19.97,8.76 -20.92,9.06 -21.77,9.68 -22.61,10.31 -23.24,10.43 -23.86,10.55 -24.51,10.84 -25.16,11.13 -25.67,11.50 -26.18,11.87 -26.70,12.31 -27.21,12.76 -28.50,13.37 -29.80,13.98 -30.86,14.49 -31.92,14.99 -32.78,15.25 -33.64,15.51 -34.47,15.88 -35.31,16.24 -36.02,16.40 -36.73,16.55 -36.78,15.80 -36.84,15.04 -36.27,15.51 -35.70,15.98 -35.21,16.49 -34.73,16.99 -34.37,18.06 -34.02,19.12 -33.45,19.81 -32.88,20.51 -32.51,21.35 -32.14,22.19 -31.74,23.04 -31.33,23.90 -30.86,24.86 -30.39,25.82 -29.57,27.77 -28.76,29.71 -28.37,31.86 -27.99,34.01 -27.28,35.93 -26.58,37.84 -26.23,40.03 -25.88,42.21 -25.20,43.81 -24.51,45.41 -23.90,47.08 -23.28,48.75 -22.70,51.01 -22.12,53.26 -21.59,55.06 -21.07,56.85 -20.82,58.30 -20.58,59.75 -19.94,61.03 -19.31,62.32 -18.98,63.33 -18.66,64.34 -18.23,65.03 -17.81,65.73 -17.77,65.90 -17.74,66.08 -17.75,66.26 -17.76,66.44 -17.81,66.61 -17.86,66.78 -17.96,66.94 -18.05,67.09 -18.17,67.22 -18.30,67.35 -18.45,67.44 -18.61,67.54 -18.78,67.59 -18.95,67.64 -19.13,67.66 -19.31,67.67 -19.49,67.64 -19.66,67.61 -19.83,67.53 -19.99,67.46 -20.14,67.35 -20.28,67.24 -20.39,67.10 -20.50,66.96 -20.58,66.79 -20.65,66.63 -21.05,66.18 -21.45,65.73 -21.95,64.48 -22.45,63.23 -23.25,60.61 -24.05,57.99 -24.95,55.77 -25.86,53.56 -26.85,51.10 -27.84,48.64 -28.58,46.04 -29.33,43.43 -29.92,41.48 -30.52,39.53 -31.06,38.14 -31.59,36.76 -31.87,35.11 -32.15,33.46 -32.25,32.18 -32.36,30.89 -32.67,29.93 -32.98,28.96 -33.15,27.78 -33.32,26.60 -33.38,26.44 -33.44,26.28 -33.44,26.09 -33.45,25.91 -33.40,25.74 -33.36,25.56 -33.28,25.40 -33.20,25.24 -33.08,25.10 -32.96,24.97 -32.82,24.86 -32.67,24.76 -32.50,24.69 -32.33,24.62 -32.15,24.60 -31.97,24.57 -31.79,24.59 -31.62,24.61 -31.45,24.68 -31.28,24.74 -31.13,24.84 -30.98,24.94 -30.85,25.07 -30.73,25.21 -30.65,25.37 -30.56,25.52 -30.51,25.70 -30.47,25.87 -29.60,27.22 -28.72,28.56 -28.05,30.37 -27.38,32.18 -26.52,35.00 -25.66,37.83 -24.72,40.46 -23.77,43.10 -23.05,45.78 -22.33,48.46 -21.44,51.65 -20.55,54.83 -19.87,57.07 -19.20,59.30 -18.62,61.14 -18.03,62.98 -17.51,64.31 -16.98,65.64 -16.72,66.61 -16.46,67.58 -16.36,68.25 -16.26,68.92 -16.23,69.10 -16.21,69.28 -16.23,69.46 -16.25,69.64 -16.31,69.81 -16.37,69.98 -16.47,70.14 -16.57,70.29 -16.71,70.41 -16.84,70.53 -17.00,70.62 -17.16,70.71 -17.34,70.75 -17.51,70.80 -17.69,70.80 -17.88,70.80 -18.05,70.76 -18.23,70.72 -18.39,70.64 -18.55,70.56 -18.69,70.44 -18.83,70.32 -18.93,70.17 -19.04,70.02 -19.11,69.86 -19.17,69.69 -19.64,68.53 -20.10,67.38 -20.69,65.97 -21.27,64.56 -21.82,62.74 -22.37,60.92 -23.17,59.06 -23.96,57.20 -24.63,55.13 -25.29,53.06 -25.87,50.98 -26.45,48.91 -27.28,46.29 -28.11,43.66 -28.76,41.64 -29.41,39.63 -29.99,37.55 -30.58,35.48 -31.11,33.73 -31.65,31.99 -32.17,30.36 -32.70,28.73 -33.20,27.48 -33.71,26.24 -33.97,24.63 -34.24,23.03 -34.34,21.77 -34.44,20.51 -34.75,19.53 -35.06,18.55 -34.93,17.19 -34.80,15.83 -34.72,15.08 -34.64,14.32 -33.91,13.10 -33.18,11.87 -32.64,10.93 -32.10,9.98 -31.11,9.08 -30.12,8.18 -29.07,7.51 -28.03,6.84 -26.83,6.50 -25.62,6.15 -24.70,5.78 -23.77,5.40 -23.17,5.00 -22.57,4.59 -21.10,3.53 -19.64,2.46 -18.45,1.44 -17.27,0.42 -15.46,-0.69 -13.65,-1.80 -12.67,-2.51 -11.70,-3.22 -10.61,-3.87 -9.52,-4.52 -8.46,-5.09 -7.41,-5.66 -6.36,-6.21 -5.31,-6.75 -4.46,-7.02 -3.61,-7.29 -2.27,-8.10 -0.94,-8.90 -0.14,-9.16 0.64,-9.41 1.66,-9.88 2.69,-10.34 2.76,-9.58 2.83,-8.81 2.45,-9.45 2.07,-10.09 1.35,-9.95 0.62,-9.81 -0.29,-9.84 -1.22,-9.87 -1.80,-8.94 -2.38,-8.01 -3.18,-7.17 -3.98,-6.33 -4.60,-5.69 -5.22,-5.05 -5.69,-4.30 -6.16,-3.55 -6.74,-2.82 -7.32,-2.09 -7.80,-1.83 -8.27,-1.57 -8.29,-2.10 -8.30,-2.64 -7.50,-2.84 -6.70,-3.03 -5.62,-3.71 -4.55,-4.38 -3.28,-4.76 -2.01,-5.15 -0.68,-5.57 0.64,-5.99 1.75,-6.44 2.87,-6.90 4.10,-7.15 5.32,-7.39 5.89,-7.71 6.46,-8.03 7.22,-8.24 7.97,-8.45 9.05,-8.97 10.13,-9.49 10.96,-9.76 11.80,-10.03 11.50,-9.88 11.21,-9.73 11.37,-9.81 11.53,-9.90 11.71,-9.94 11.89,-9.99 12.07,-9.99 12.25,-9.99 12.43,-9.94 12.61,-9.90 12.77,-9.81 12.93,-9.73 13.07,-9.61 13.21,-9.49 13.31,-9.34 13.42,-9.19 13.48,-9.01 13.55,-8.84 13.57,-8.66 13.59,-8.48 13.57,-8.30 13.55,-8.12 13.48,-7.94 13.42,-7.77 13.32,-7.62 13.21,-7.47 13.07,-7.35 12.94,-7.23 11.35,-7.01 9.77,-6.79 8.95,-6.51 8.13,-6.23 6.99,-6.07 5.84,-5.92 4.96,-5.60 4.08,-5.28 2.74,-4.83 1.41,-4.38 0.13,-4.16 -1.14,-3.94 -2.44,-3.58 -3.75,-3.22 -4.65,-3.07 -5.55,-2.92 -5.68,-2.82 -5.81,-2.73 -5.99,-2.72 -6.18,-2.71 -6.36,-2.74 -6.54,-2.78 -6.70,-2.85 -6.87,-2.93 -7.02,-3.04 -7.16,-3.16 -7.27,-3.30 -7.39,-3.45 -7.46,-3.61 -7.54,-3.78 -7.57,-3.96 -7.60,-4.14 -7.59,-4.33 -7.58,-4.51 -7.53,-4.68 -7.47,-4.86 -7.37,-5.02 -7.28,-5.17 -7.15,-5.30 -7.02,-5.43 -6.86,-5.53 -6.70,-5.62 -6.53,-5.68 -6.35,-5.73 -5.24,-5.70 -4.13,-5.67 -3.12,-5.94 -2.12,-6.21 -0.76,-6.62 0.59,-7.04 2.06,-7.51 3.54,-7.98 5.39,-8.49 7.24,-9.00 8.54,-9.48 9.85,-9.97 10.81,-10.22 11.77,-10.46 12.85,-10.57 13.93,-10.68 14.67,-10.72 15.41,-10.76 16.03,-10.78 16.64,-10.79 17.20,-10.80 17.75,-10.81 17.93,-10.79 18.11,-10.77 18.28,-10.71 18.46,-10.65 18.61,-10.55 18.76,-10.45 18.89,-10.32 19.01,-10.19 19.10,-10.03 19.19,-9.87 19.24,-9.69 19.29,-9.51 19.30,-9.33 19.30,-9.15 19.26,-8.97 19.22,-8.79 19.14,-8.63 19.06,-8.46 18.94,-8.32 18.83,-8.18 18.68,-8.07 18.53,-7.97 18.36,-7.90 18.19,-7.83 18.01,-7.80 17.83,-7.77 18.44,-7.77 19.05,-7.77 20.01,-7.75 20.97,-7.73 21.62,-7.92 22.27,-8.12 22.98,-8.32 23.69,-8.52 24.20,-8.58 24.72,-8.63 24.90,-8.65 25.08,-8.67 25.26,-8.65 25.45,-8.63 25.62,-8.56 25.79,-8.50 25.94,-8.39 26.09,-8.29 26.21,-8.15 26.33,-8.01 26.42,-7.85 26.50,-7.69 26.54,-7.51 26.59,-7.33 26.59,-7.15 26.59,-6.97 26.54,-6.79 26.50,-6.61 26.41,-6.45 26.33,-6.29 26.21,-6.15 26.08,-6.01 25.93,-5.91 25.78,-5.80 25.61,-5.74 25.44,-5.68 24.36,-6.17 23.29,-6.66 22.32,-6.69 21.34,-6.71 20.83,-6.72 20.32,-6.73 20.14,-6.76 19.96,-6.79 19.79,-6.87 19.62,-6.94 19.48,-7.05 19.33,-7.16 19.22,-7.30 19.10,-7.45 19.02,-7.61 18.95,-7.78 18.91,-7.96 18.88,-8.14 18.88,-8.32 18.89,-8.51 18.95,-8.68 19.00,-8.86 19.09,-9.02 19.18,-9.17 19.31,-9.30 19.44,-9.44 19.59,-9.53 19.75,-9.63 19.93,-9.69 20.10,-9.74 20.28,-9.76 20.47,-9.77 21.05,-9.13 21.64,-8.49 22.40,-8.64 23.15,-8.79 24.21,-8.41 25.28,-8.03 26.19,-7.10 27.11,-6.16 27.82,-4.12 28.53,-2.07 29.06,-0.43 29.60,1.21 30.42,3.69 31.25,6.18 31.89,8.13 32.54,10.07 33.12,11.79 33.69,13.51 33.96,15.26 34.24,17.01 34.61,18.18 34.99,19.35 35.13,20.17 35.26,21.00 35.40,21.15 35.53,21.31 35.54,21.50 35.56,21.68 35.53,21.87 35.50,22.05 35.42,22.22 35.35,22.40 35.24,22.55 35.12,22.70 34.98,22.81 34.83,22.93 34.66,23.01 34.50,23.09 34.31,23.13 34.13,23.17 33.94,23.16 33.75,23.15 33.57,23.10 33.39,23.04 33.23,22.95 33.07,22.86 32.93,22.73 32.80,22.60 32.70,22.44 32.60,22.28 32.54,22.10 32.48,21.92 32.50,20.88 32.51,19.84 32.25,18.78 31.98,17.71 31.57,16.00 31.15,14.28 30.68,12.69 30.22,11.10 29.71,8.88 29.20,6.66 28.42,4.65 27.65,2.64 26.74,0.61 25.83,-1.40 24.11,-2.95 22.39,-4.50 20.99,-5.86 19.59,-7.22 18.16,-8.33 16.74,-9.45 15.24,-10.52 13.75,-11.59 12.60,-12.31 11.46,-13.02 10.68,-12.95 9.89,-12.88 8.84,-12.89 7.78,-12.90 6.95,-12.64 6.11,-12.37 5.52,-12.02 4.94,-11.66 3.82,-11.41 2.70,-11.15 1.93,-10.40 1.17,-9.64 1.00,-9.57 0.82,-9.50 0.64,-9.48 0.45,-9.45 0.26,-9.47 0.08,-9.49 -0.09,-9.56 -0.27,-9.62 -0.42,-9.72 -0.58,-9.83 -0.70,-9.97 -0.83,-10.10 -0.92,-10.27 -1.01,-10.43 -1.06,-10.61 -1.10,-10.80 -1.11,-10.98 -1.11,-11.17 -1.07,-11.35 -1.03,-11.54 -0.94,-11.70 -0.86,-11.87 -0.74,-12.01 -0.61,-12.15 -0.46,-12.26 -0.31,-12.37 0.36,-12.55 1.04,-12.73 1.95,-12.79 2.86,-12.85 3.95,-13.15 5.03,-13.44 6.96,-14.14 8.90,-14.85 9.96,-15.41 11.01,-15.98 12.46,-16.57 13.92,-17.15 15.91,-18.24 17.90,-19.33 19.39,-20.11 20.87,-20.89 22.35,-21.79 23.83,-22.69 25.10,-23.40 26.36,-24.10 27.30,-24.45 28.24,-24.79 29.13,-25.19 30.02,-25.59 30.84,-25.81 31.67,-26.03 32.35,-26.13 33.04,-26.22 33.59,-26.25 34.14,-26.29 34.32,-26.29 34.51,-26.29 34.69,-26.25 34.87,-26.20 35.03,-26.12 35.20,-26.03 35.34,-25.91 35.48,-25.79 35.59,-25.64 35.69,-25.48 35.76,-25.31 35.83,-25.14 35.85,-24.95 35.87,-24.77 35.85,-24.59 35.83,-24.40 35.77,-24.23 35.70,-24.05 35.60,-23.90 35.49,-23.75 35.35,-23.62 35.22,-23.50 35.05,-23.41 34.89,-23.33 34.71,-23.28 34.53,-23.23 34.15,-22.32 33.78,-21.41 33.40,-20.73 33.02,-20.05 32.91,-19.34 32.80,-18.63 32.74,-17.17 32.67,-15.70 32.64,-14.16 32.61,-12.62 32.88,-11.21 33.15,-9.81 33.57,-7.36 33.99,-4.90 34.46,-2.39 34.94,0.11 35.43,2.35 35.92,4.59 36.42,6.40 36.93,8.22 37.44,10.20 37.96,12.19 38.46,13.56 38.95,14.93 39.21,16.90 39.47,18.86 39.57,19.95 39.66,21.03 39.67,21.73 39.68,22.42 39.73,22.52 39.78,22.63 39.77,22.81 39.76,23.00 39.70,23.18 39.64,23.36 39.54,23.52 39.45,23.68 39.31,23.81 39.18,23.95 39.02,24.04 38.85,24.14 38.67,24.19 38.49,24.25 38.31,24.26 38.12,24.27 37.93,24.23 37.75,24.20 37.58,24.12 37.41,24.04 37.26,23.92 37.11,23.80 37.00,23.66 36.88,23.51 36.81,23.33 36.73,23.16 36.70,22.98 36.67,22.79 36.00,21.29 35.34,19.80 34.84,18.07 34.35,16.34 33.84,14.10 33.33,11.86 32.83,10.07 32.33,8.28 32.10,7.15 31.87,6.03 31.92,5.44 31.96,4.85 31.78,4.60 31.59,4.35 31.59,4.17 31.59,3.98 31.63,3.80 31.68,3.61 31.77,3.45 31.85,3.28 31.98,3.14 32.10,3.00 32.26,2.89 32.41,2.78 32.59,2.72 32.76,2.65 32.95,2.63 33.14,2.60 33.32,2.63 33.51,2.65 33.69,2.72 33.86,2.78 34.02,2.89 34.17,3.00 34.30,3.14 34.42,3.28 34.51,3.44 34.59,3.61 34.64,3.79 34.69,3.98 34.93,4.72 35.18,5.46 35.61,7.06 36.04,8.65 36.50,10.18 36.97,11.71 37.75,13.82 38.53,15.92 39.48,18.96 40.43,21.99 41.12,24.47 41.82,26.95 42.41,28.87 43.00,30.79 43.27,32.30 43.55,33.81 43.65,34.74 43.76,35.66 43.81,35.77 43.86,35.87 43.86,36.06 43.86,36.25 43.82,36.43 43.77,36.61 43.68,36.78 43.60,36.94 43.47,37.08 43.35,37.22 43.19,37.33 43.04,37.44 42.86,37.50 42.69,37.57 42.50,37.59 42.31,37.61 42.13,37.59 41.94,37.57 41.76,37.50 41.59,37.43 41.43,37.33 41.28,37.22 41.16,37.08 41.03,36.94 40.95,36.77 40.86,36.60 40.81,36.42 40.77,36.24 40.55,35.48 40.34,34.72 39.67,33.63 39.01,32.54 38.12,31.16 37.23,29.78 36.21,27.61 35.18,25.44 34.73,23.86 34.28,22.28 33.80,21.63 33.32,20.99 33.29,20.80 33.26,20.62 33.28,20.43 33.29,20.24 33.36,20.07 33.42,19.89 33.52,19.73 33.62,19.58 33.75,19.45 33.89,19.32 34.05,19.23 34.22,19.13 34.40,19.08 34.58,19.03 34.76,19.03 34.95,19.02 35.13,19.06 35.32,19.10 35.49,19.18 35.65,19.26 35.80,19.38 35.94,19.50 36.05,19.65 36.16,19.80 36.24,19.98 36.31,20.15 36.42,20.86 36.53,21.57 37.11,22.84 37.69,24.11 38.56,26.23 39.43,28.35 40.41,31.06 41.38,33.77 42.38,36.38 43.38,38.99 44.38,41.26 45.39,43.52 45.86,45.27 46.33,47.02 46.22,47.32 46.11,47.63 46.14,47.81 46.16,48.00 46.15,48.18 46.13,48.37 46.07,48.54 46.01,48.72 45.91,48.88 45.80,49.03 45.67,49.16 45.53,49.29 45.37,49.38 45.21,49.47 45.03,49.52 44.85,49.57 44.66,49.57 44.47,49.58 44.29,49.54 44.11,49.50 43.94,49.42 43.78,49.33 43.63,49.21 43.49,49.09 43.38,48.94 43.27,48.79 43.20,48.62 43.13,48.45 42.64,48.01 42.16,47.58 41.48,46.20 40.80,44.83 39.94,42.80 39.09,40.77 38.42,38.95 37.76,37.14 37.78,37.04 37.81,36.94 37.76,36.76 37.72,36.58 37.72,36.39 37.72,36.20 37.76,36.02 37.81,35.84 37.90,35.68 37.98,35.51 38.11,35.37 38.23,35.23 38.39,35.13 38.54,35.02 38.71,34.96 38.89,34.89 39.07,34.87 39.26,34.85 39.44,34.87 39.63,34.90 39.80,34.96 39.98,35.03 40.13,35.14 40.28,35.24 40.41,35.38 40.53,35.52 40.62,35.69 40.70,35.85 41.56,37.49 42.42,39.12 43.38,40.71 44.33,42.29 45.04,43.87 45.76,45.45 45.83,45.62 45.91,45.79 45.94,45.98 45.97,46.16 45.96,46.34 45.95,46.53 45.90,46.71 45.84,46.89 45.74,47.05 45.65,47.20 45.51,47.34 45.38,47.47 45.22,47.56 45.06,47.66 44.89,47.71 44.71,47.77 44.52,47.78 44.34,47.79 44.15,47.76 43.97,47.72 43.80,47.65 43.63,47.57 43.48,47.45 43.34,47.34 43.22,47.19 43.11,47.05 41.95,44.37 40.79,41.70 40.75,41.60 40.71,41.50 40.70,41.40 40.70,41.29 40.72,41.19 40.75,41.09 40.81,41.00 40.86,40.91 40.95,40.84 41.03,40.78 41.13,40.74 41.23,40.70 41.34,40.70 41.44,40.70 41.54,40.73 41.65,40.76 41.73,40.83 41.82,40.89 41.88,40.98 41.94,41.06 41.97,41.16 42.00,41.27 42.00,41.37 41.99,41.48 41.96,41.58 41.92,41.68 41.85,41.76 41.79,41.84 41.70,41.90 41.61,41.96 41.50,41.98 41.40,42.01 41.29,42.00 41.19,41.99 41.09,41.94 40.99,41.90 40.91,41.83 40.84,41.76 40.78,41.67 40.73,41.57 40.71,41.47 40.69,41.36 40.71,41.26 40.72,41.15 40.77,41.06 40.82,40.96 40.90,40.89 40.97,40.81 41.07,40.77 41.16,40.72 41.27,40.71 41.37,40.69 41.48,40.71 41.58,40.74 41.67,40.79 41.77,40.84 41.84,40.92 41.91,41.00 41.91,41.00 41.91,41.00 43.83,43.23 45.76,45.45 45.83,45.62 45.91,45.79 45.94,45.98 45.97,46.16 45.96,46.34 45.95,46.53 45.90,46.71 45.84,46.89 45.74,47.05 45.65,47.20 45.51,47.34 45.38,47.47 45.22,47.56 45.06,47.66 44.89,47.71 44.71,47.77 44.52,47.78 44.34,47.79 44.15,47.76 43.97,47.72 43.80,47.65 43.63,47.57 43.48,47.45 43.34,47.34 43.22,47.19 43.11,47.05 42.40,45.46 41.68,43.88 40.68,42.22 39.68,40.56 38.74,38.75 37.81,36.94 37.76,36.76 37.72,36.58 37.72,36.39 37.72,36.20 37.76,36.02 37.81,35.84 37.90,35.68 37.98,35.51 38.11,35.37 38.23,35.23 38.39,35.13 38.54,35.02 38.71,34.96 38.89,34.89 39.07,34.87 39.26,34.85 39.44,34.87 39.63,34.90 39.80,34.96 39.98,35.03 40.13,35.14 40.28,35.24 40.41,35.38 40.53,35.52 40.61,35.69 40.70,35.85 40.69,36.04 40.67,36.23 41.31,37.90 41.95,39.57 42.77,41.54 43.59,43.50 44.05,44.53 44.51,45.57 45.31,46.60 46.11,47.63 46.14,47.81 46.16,48.00 46.15,48.18 46.13,48.37 46.07,48.54 46.01,48.72 45.91,48.88 45.80,49.03 45.67,49.16 45.53,49.29 45.37,49.38 45.21,49.47 45.03,49.52 44.85,49.57 44.66,49.57 44.47,49.58 44.29,49.54 44.11,49.50 43.94,49.42 43.78,49.33 43.63,49.21 43.49,49.09 43.38,48.94 43.27,48.79 43.20,48.62 43.13,48.45 43.24,48.01 43.36,47.57 42.96,46.17 42.56,44.77 41.53,42.43 40.49,40.09 39.48,37.45 38.47,34.81 37.52,32.17 36.57,29.52 35.72,27.43 34.86,25.34 34.17,23.70 33.48,22.07 33.40,21.53 33.32,20.99 33.29,20.80 33.26,20.62 33.28,20.43 33.29,20.24 33.36,20.07 33.42,19.89 33.52,19.73 33.62,19.58 33.75,19.45 33.89,19.32 34.05,19.23 34.22,19.13 34.40,19.08 34.58,19.03 34.76,19.03 34.95,19.02 35.13,19.06 35.32,19.10 35.49,19.18 35.65,19.26 35.80,19.38 35.94,19.50 36.05,19.65 36.16,19.80 36.24,19.98 36.31,20.15 36.77,20.76 37.24,21.37 37.62,22.75 38.00,24.12 38.93,26.11 39.85,28.10 40.77,29.52 41.68,30.94 42.45,32.23 43.22,33.53 43.54,34.70 43.86,35.87 43.86,36.06 43.86,36.25 43.82,36.43 43.77,36.61 43.68,36.78 43.60,36.94 43.47,37.08 43.35,37.22 43.19,37.33 43.04,37.44 42.86,37.50 42.69,37.57 42.50,37.59 42.31,37.61 42.13,37.59 41.94,37.57 41.76,37.50 41.59,37.43 41.44,37.33 41.28,37.22 41.16,37.08 41.03,36.94 40.95,36.77 40.86,36.60 40.81,36.42 40.77,36.24 40.73,36.17 40.69,36.11 40.58,35.23 40.48,34.36 40.25,33.03 40.02,31.70 39.42,29.75 38.83,27.80 38.14,25.36 37.45,22.91 36.53,19.96 35.61,17.00 34.80,14.81 33.99,12.62 33.51,11.04 33.03,9.46 32.62,7.93 32.21,6.40 31.90,5.38 31.59,4.35 31.59,4.17 31.59,3.98 31.63,3.80 31.68,3.61 31.77,3.45 31.85,3.28 31.98,3.14 32.10,3.00 32.26,2.89 32.41,2.78 32.59,2.72 32.76,2.65 32.95,2.63 33.14,2.60 33.32,2.63 33.51,2.65 33.68,2.72 33.86,2.78 34.02,2.89 34.17,3.00 34.30,3.14 34.42,3.28 34.51,3.44 34.59,3.61 34.64,3.79 34.69,3.98 34.58,3.77 34.47,3.57 34.70,4.49 34.93,5.41 35.13,6.43 35.34,7.44 35.85,9.31 36.37,11.17 36.86,13.33 37.35,15.48 37.81,17.10 38.27,18.72 38.65,19.78 39.04,20.85 39.41,21.74 39.78,22.63 39.77,22.81 39.76,23.00 39.70,23.18 39.64,23.36 39.54,23.52 39.45,23.68 39.31,23.81 39.18,23.95 39.02,24.04 38.85,24.14 38.67,24.19 38.49,24.25 38.31,24.26 38.12,24.27 37.93,24.23 37.75,24.20 37.58,24.12 37.41,24.04 37.26,23.92 37.11,23.80 37.00,23.66 36.88,23.51 36.81,23.33 36.73,23.16 36.70,22.98 36.67,22.79 36.68,22.86 36.70,22.92 36.63,22.11 36.56,21.31 36.47,20.27 36.38,19.24 36.20,17.60 36.02,15.97 35.48,14.47 34.95,12.97 34.44,11.01 33.93,9.04 33.41,7.15 32.89,5.26 32.39,2.97 31.89,0.68 31.41,-1.84 30.94,-4.38 30.52,-6.82 30.10,-9.26 29.81,-10.97 29.52,-12.67 29.55,-14.26 29.59,-15.85 29.69,-17.55 29.78,-19.25 30.06,-20.39 30.33,-21.54 31.09,-22.69 31.86,-23.84 32.50,-24.44 33.15,-25.03 33.64,-25.66 34.14,-26.29 34.32,-26.29 34.51,-26.29 34.69,-26.25 34.87,-26.20 35.03,-26.12 35.20,-26.03 35.34,-25.91 35.48,-25.79 35.58,-25.64 35.69,-25.48 35.76,-25.31 35.83,-25.14 35.85,-24.95 35.87,-24.77 35.85,-24.59 35.83,-24.40 35.77,-24.23 35.70,-24.05 35.60,-23.90 35.49,-23.75 35.35,-23.62 35.22,-23.50 35.05,-23.41 34.89,-23.33 34.71,-23.28 34.53,-23.23 33.48,-23.14 32.43,-23.05 31.85,-22.91 31.27,-22.78 30.27,-22.33 29.28,-21.89 28.57,-21.65 27.86,-21.41 26.64,-20.73 25.43,-20.06 23.87,-19.11 22.31,-18.16 20.85,-17.39 19.38,-16.61 17.23,-15.45 15.07,-14.28 13.77,-13.76 12.46,-13.23 11.21,-12.58 9.96,-11.93 7.88,-11.18 5.80,-10.43 4.42,-10.09 3.05,-9.75 2.11,-9.70 1.17,-9.64 1.00,-9.57 0.82,-9.51 0.64,-9.48 0.45,-9.45 0.26,-9.47 0.08,-9.49 -0.09,-9.56 -0.26,-9.62 -0.42,-9.72 -0.58,-9.83 -0.70,-9.97 -0.83,-10.10 -0.92,-10.27 -1.01,-10.43 -1.06,-10.61 -1.10,-10.80 -1.11,-10.98 -1.11,-11.17 -1.07,-11.35 -1.03,-11.54 -0.94,-11.70 -0.86,-11.87 -0.74,-12.01 -0.61,-12.15 -0.46,-12.26 -0.31,-12.37 -0.05,-12.80 0.19,-13.22 1.12,-13.70 2.05,-14.18 2.75,-14.28 3.45,-14.39 4.35,-14.87 5.25,-15.36 6.52,-15.68 7.78,-16.01 8.87,-16.00 9.96,-15.99 11.42,-15.86 12.88,-15.74 14.22,-14.93 15.56,-14.12 17.11,-13.01 18.66,-11.90 20.21,-10.68 21.75,-9.46 23.14,-8.11 24.53,-6.77 26.57,-4.76 28.62,-2.75 29.59,-0.61 30.56,1.53 31.39,3.75 32.23,5.96 32.72,8.10 33.21,10.23 33.69,11.89 34.18,13.55 34.60,15.29 35.02,17.02 35.32,18.47 35.62,19.93 35.58,20.62 35.53,21.31 35.54,21.50 35.56,21.68 35.53,21.87 35.50,22.05 35.42,22.22 35.35,22.40 35.24,22.55 35.12,22.70 34.98,22.81 34.83,22.93 34.66,23.01 34.50,23.09 34.31,23.13 34.13,23.17 33.94,23.16 33.75,23.15 33.57,23.10 33.39,23.04 33.23,22.95 33.07,22.86 32.94,22.73 32.80,22.60 32.70,22.44 32.60,22.28 32.54,22.10 32.48,21.92 32.47,21.96 32.46,21.99 32.26,21.13 32.05,20.27 31.63,18.87 31.20,17.47 30.99,15.97 30.78,14.48 30.21,12.76 29.64,11.04 28.99,9.09 28.34,7.14 27.52,4.65 26.69,2.16 26.15,0.50 25.61,-1.15 25.19,-2.70 24.76,-4.24 24.40,-4.76 24.04,-5.27 22.98,-5.53 21.91,-5.80 21.12,-6.26 20.32,-6.73 20.14,-6.76 19.96,-6.79 19.79,-6.87 19.62,-6.94 19.48,-7.05 19.33,-7.16 19.22,-7.30 19.10,-7.45 19.02,-7.61 18.95,-7.78 18.91,-7.96 18.88,-8.14 18.88,-8.32 18.89,-8.51 18.95,-8.68 19.00,-8.86 19.09,-9.02 19.18,-9.17 19.31,-9.30 19.44,-9.44 19.59,-9.53 19.75,-9.63 19.92,-9.69 20.10,-9.74 20.28,-9.76 20.47,-9.77 20.98,-9.76 21.49,-9.75 22.04,-9.72 22.59,-9.70 23.21,-9.61 23.82,-9.53 24.27,-9.08 24.72,-8.63 24.90,-8.65 25.08,-8.67 25.26,-8.65 25.45,-8.63 25.62,-8.56 25.79,-8.50 25.94,-8.39 26.09,-8.29 26.21,-8.15 26.33,-8.01 26.42,-7.85 26.50,-7.69 26.54,-7.51 26.59,-7.33 26.59,-7.15 26.59,-6.97 26.54,-6.79 26.50,-6.61 26.41,-6.45 26.33,-6.29 26.21,-6.15 26.08,-6.01 25.93,-5.91 25.78,-5.80 25.61,-5.74 25.44,-5.68 24.60,-5.57 23.75,-5.47 22.92,-5.09 22.08,-4.71 21.51,-4.70 20.94,-4.69 19.88,-4.71 18.83,-4.73 18.27,-4.78 17.70,-4.82 17.03,-5.02 16.35,-5.21 15.90,-5.74 15.46,-6.27 15.39,-7.29 15.32,-8.30 15.96,-8.91 16.60,-9.52 17.18,-10.16 17.75,-10.81 17.93,-10.79 18.11,-10.77 18.28,-10.71 18.46,-10.65 18.61,-10.55 18.76,-10.45 18.89,-10.32 19.01,-10.19 19.10,-10.03 19.19,-9.87 19.24,-9.69 19.29,-9.51 19.30,-9.33 19.30,-9.15 19.26,-8.97 19.22,-8.79 19.14,-8.63 19.06,-8.46 18.94,-8.32 18.83,-8.18 18.68,-8.07 18.53,-7.97 18.36,-7.90 18.19,-7.83 18.01,-7.80 17.83,-7.77 17.28,-7.77 16.73,-7.76 16.15,-7.74 15.57,-7.73 14.89,-7.69 14.22,-7.65 13.36,-7.58 12.50,-7.50 11.70,-7.31 10.91,-7.12 9.48,-6.59 8.05,-6.06 6.26,-5.57 4.47,-5.08 2.97,-4.60 1.47,-4.12 0.03,-3.68 -1.39,-3.25 -2.77,-2.94 -4.15,-2.63 -4.98,-2.68 -5.81,-2.73 -5.99,-2.72 -6.18,-2.71 -6.36,-2.74 -6.54,-2.78 -6.70,-2.85 -6.87,-2.93 -7.02,-3.04 -7.16,-3.16 -7.27,-3.30 -7.39,-3.45 -7.46,-3.61 -7.54,-3.78 -7.57,-3.96 -7.60,-4.14 -7.59,-4.33 -7.58,-4.51 -7.53,-4.68 -7.47,-4.86 -7.38,-5.02 -7.28,-5.17 -7.15,-5.30 -7.02,-5.43 -6.86,-5.53 -6.70,-5.62 -6.53,-5.68 -6.35,-5.73 -6.32,-5.78 -6.30,-5.82 -5.42,-5.99 -4.55,-6.16 -3.09,-6.55 -1.63,-6.95 -0.59,-7.11 0.44,-7.27 1.77,-7.71 3.09,-8.16 4.27,-8.55 5.44,-8.93 6.35,-9.04 7.25,-9.14 8.45,-9.48 9.66,-9.82 10.43,-9.77 11.21,-9.73 11.37,-9.81 11.53,-9.90 11.71,-9.94 11.89,-9.99 12.07,-9.99 12.25,-9.99 12.43,-9.94 12.61,-9.90 12.77,-9.81 12.93,-9.73 13.07,-9.61 13.21,-9.49 13.31,-9.34 13.42,-9.19 13.48,-9.01 13.55,-8.84 13.57,-8.66 13.59,-8.48 13.57,-8.30 13.55,-8.12 13.48,-7.94 13.42,-7.77 13.32,-7.62 13.21,-7.47 13.07,-7.35 12.94,-7.23 12.20,-7.36 11.46,-7.49 10.89,-6.97 10.32,-6.44 9.07,-5.87 7.82,-5.30 6.87,-4.86 5.91,-4.41 4.96,-4.24 4.01,-4.08 2.78,-3.58 1.56,-3.08 0.18,-2.65 -1.19,-2.22 -2.08,-2.00 -2.98,-1.78 -4.20,-1.02 -5.43,-0.27 -6.36,0.06 -7.29,0.40 -8.25,0.33 -9.20,0.26 -9.82,-0.12 -10.43,-0.51 -10.64,-1.36 -10.84,-2.20 -10.27,-3.10 -9.69,-4.00 -9.20,-4.60 -8.71,-5.20 -8.06,-6.18 -7.41,-7.16 -6.79,-7.79 -6.17,-8.43 -5.15,-9.53 -4.12,-10.63 -3.65,-11.31 -3.19,-11.99 -2.29,-12.42 -1.40,-12.85 -0.30,-12.85 0.80,-12.84 1.35,-12.80 1.90,-12.77 2.54,-12.64 3.17,-12.52 3.96,-11.65 4.75,-10.78 3.90,-9.13 3.05,-7.47 2.29,-7.01 1.54,-6.54 1.01,-6.40 0.48,-6.25 -0.31,-5.82 -1.11,-5.39 -1.90,-4.91 -2.69,-4.43 -3.32,-4.25 -3.94,-4.07 -4.96,-3.54 -5.98,-3.02 -6.98,-2.47 -7.99,-1.93 -8.96,-1.36 -9.93,-0.78 -11.01,-0.01 -12.08,0.76 -13.70,1.73 -15.31,2.70 -16.59,3.80 -17.87,4.89 -19.40,6.01 -20.94,7.12 -21.79,7.66 -22.65,8.19 -23.76,8.63 -24.87,9.07 -25.67,9.23 -26.46,9.40 -27.31,9.93 -28.16,10.47 -28.84,10.99 -29.52,11.52 -30.10,12.54 -30.69,13.57 -31.20,14.17 -31.71,14.77 -31.76,15.51 -31.82,16.26 -31.99,17.03 -32.17,17.80 -31.81,19.03 -31.44,20.26 -31.35,21.42 -31.26,22.57 -31.09,23.85 -30.91,25.13 -30.37,26.47 -29.83,27.81 -29.30,29.46 -28.77,31.11 -28.23,32.88 -27.68,34.66 -27.11,36.68 -26.54,38.70 -25.89,40.73 -25.23,42.75 -24.39,45.42 -23.54,48.10 -22.98,50.12 -22.41,52.13 -21.79,54.08 -21.17,56.03 -20.32,58.04 -19.48,60.05 -18.97,61.73 -18.47,63.42 -17.97,64.66 -17.47,65.90 -16.86,67.41 -16.26,68.92 -16.23,69.10 -16.21,69.28 -16.23,69.46 -16.25,69.64 -16.31,69.81 -16.37,69.98 -16.47,70.14 -16.57,70.29 -16.71,70.41 -16.84,70.53 -17.00,70.62 -17.16,70.70 -17.34,70.75 -17.51,70.80 -17.69,70.80 -17.88,70.80 -18.05,70.76 -18.23,70.72 -18.39,70.64 -18.55,70.56 -18.69,70.44 -18.83,70.32 -18.93,70.17 -19.04,70.02 -19.11,69.86 -19.17,69.69 -19.27,69.01 -19.37,68.34 -19.57,67.54 -19.78,66.74 -20.34,65.32 -20.90,63.89 -21.49,62.03 -22.08,60.17 -22.76,57.91 -23.44,55.64 -24.34,52.44 -25.23,49.24 -25.92,46.67 -26.60,44.11 -27.57,41.41 -28.53,38.70 -29.37,35.95 -30.21,33.20 -30.73,31.68 -31.26,30.16 -32.00,28.99 -32.75,27.82 -33.09,27.05 -33.44,26.28 -33.44,26.09 -33.45,25.91 -33.40,25.74 -33.36,25.56 -33.28,25.40 -33.20,25.24 -33.08,25.10 -32.96,24.97 -32.82,24.86 -32.67,24.76 -32.50,24.69 -32.33,24.62 -32.15,24.60 -31.97,24.57 -31.79,24.59 -31.62,24.61 -31.45,24.68 -31.28,24.74 -31.13,24.84 -30.98,24.94 -30.85,25.07 -30.73,25.21 -30.65,25.37 -30.56,25.52 -30.51,25.70 -30.47,25.87 -30.41,26.03 -30.35,26.18 -30.23,27.14 -30.11,28.10 -29.74,29.37 -29.37,30.64 -29.28,31.82 -29.18,33.00 -28.99,34.34 -28.79,35.69 -28.22,37.17 -27.65,38.65 -27.05,40.63 -26.44,42.61 -25.75,45.07 -25.06,47.52 -24.07,49.97 -23.08,52.43 -22.13,54.77 -21.18,57.11 -20.42,59.63 -19.65,62.14 -19.24,63.58 -18.83,65.02 -18.32,65.37 -17.81,65.73 -17.77,65.90 -17.74,66.08 -17.75,66.26 -17.76,66.44 -17.81,66.61 -17.86,66.78 -17.96,66.94 -18.05,67.09 -18.17,67.22 -18.30,67.35 -18.45,67.44 -18.61,67.54 -18.78,67.59 -18.95,67.64 -19.13,67.66 -19.31,67.67 -19.49,67.64 -19.66,67.61 -19.83,67.53 -19.99,67.46 -20.14,67.35 -20.28,67.24 -20.39,67.10 -20.50,66.96 -20.58,66.79 -20.65,66.63 -21.07,65.95 -21.49,65.26 -21.75,64.42 -22.01,63.58 -22.76,61.92 -23.51,60.26 -23.71,58.98 -23.92,57.69 -24.46,55.84 -25.00,54.00 -25.53,51.89 -26.06,49.78 -26.66,48.16 -27.25,46.54 -28.03,44.61 -28.80,42.68 -29.08,40.76 -29.36,38.84 -30.13,36.68 -30.90,34.52 -31.19,32.67 -31.48,30.83 -32.26,28.98 -33.04,27.12 -33.52,26.14 -34.00,25.16 -34.43,24.24 -34.87,23.32 -35.07,22.77 -35.28,22.23 -36.09,20.55 -36.91,18.88 -37.34,18.48 -37.76,18.08 -38.28,17.51 -38.80,16.94 -38.27,15.45 -37.74,13.97 -37.08,13.79 -36.42,13.61 -35.42,13.20 -34.43,12.78 -33.78,12.61 -33.13,12.44 -32.03,11.92 -30.94,11.41 -29.97,11.01 -29.00,10.61 -28.37,10.09 -27.75,9.58 -26.98,9.07 -26.22,8.57 -25.26,8.20 -24.30,7.83 -23.70,7.78 -23.10,7.74 -22.48,7.18 -21.87,6.63 -21.00,6.35 -20.13,6.08 -18.61,5.39 -17.09,4.70 -14.41,3.83 -11.73,2.96 -6.00,1.10 -0.27,-0.74 -0.18,-0.76 -0.08,-0.78 0.00,-0.78 0.10,-0.78 0.19,-0.76 0.28,-0.74 0.37,-0.69 0.45,-0.64 0.52,-0.58 0.59,-0.52 0.65,-0.44 0.70,-0.36 0.74,-0.27 0.77,-0.18 0.78,-0.08 0.79,0.00 0.78,0.10 0.76,0.19 0.73,0.28 0.69,0.37 0.64,0.45 0.58,0.53 0.51,0.59 0.44,0.65 0.35,0.70 0.27,0.74 0.27,0.74 L 0.27,0.74 Z"/></g><g transform="translate(51.35525299592973 106.15096321553634) rotate(0 22.22844848531213 21.71150782286304)" stroke="none"><path fill="#e9ecef" d="M -0.42,-0.69 Q -0.42,-0.69 5.74,-4.67 11.91,-8.65 15.19,-10.32 18.47,-12.00 20.77,-13.01 23.07,-14.03 24.70,-14.49 26.34,-14.95 27.66,-15.15 28.99,-15.35 30.16,-15.44 31.33,-15.52 32.12,-15.56 32.91,-15.60 33.70,-15.57 34.48,-15.53 35.37,-14.82 36.25,-14.11 36.91,-12.82 37.57,-11.52 37.84,-10.65 38.11,-9.78 38.49,-8.93 38.87,-8.08 39.33,-7.11 39.79,-6.14 40.05,-4.66 40.31,-3.17 40.96,-1.57 41.61,0.03 41.93,1.47 42.25,2.90 42.39,4.75 42.53,6.61 42.87,8.15 43.22,9.69 43.67,11.88 44.13,14.07 44.33,16.56 44.53,19.06 44.91,21.83 45.29,24.60 45.46,27.03 45.63,29.46 45.70,31.99 45.77,34.52 45.81,36.78 45.84,39.04 45.86,41.19 45.87,43.34 45.88,45.44 45.89,47.55 45.89,49.03 45.90,50.52 45.90,52.06 45.91,53.59 45.58,54.74 45.25,55.90 44.55,57.01 43.85,58.12 43.00,57.60 42.15,57.08 42.06,56.25 41.97,55.41 42.31,54.38 42.64,53.36 42.73,52.59 42.82,51.83 43.14,49.44 43.47,47.05 43.63,45.23 43.80,43.40 43.81,43.30 43.83,43.20 43.89,43.10 43.94,43.01 44.02,42.94 44.10,42.87 44.19,42.82 44.29,42.78 44.40,42.77 44.50,42.76 44.60,42.79 44.71,42.81 44.80,42.87 44.89,42.93 44.95,43.01 45.02,43.09 45.06,43.19 45.10,43.29 45.10,43.40 45.10,43.50 45.07,43.60 45.04,43.71 44.98,43.79 44.92,43.88 44.83,43.94 44.75,44.00 44.65,44.04 44.54,44.07 44.44,44.07 44.33,44.06 44.23,44.03 44.13,43.99 44.05,43.93 43.97,43.86 43.91,43.77 43.85,43.68 43.82,43.58 43.80,43.47 43.81,43.37 43.81,43.26 43.86,43.17 43.90,43.07 43.97,42.99 44.04,42.91 44.13,42.86 44.22,42.80 44.33,42.78 44.43,42.76 44.54,42.78 44.64,42.79 44.74,42.84 44.83,42.88 44.91,42.96 44.98,43.03 45.03,43.13 45.08,43.22 45.09,43.33 45.11,43.43 45.11,43.43 45.11,43.43 45.19,45.26 45.28,47.09 45.50,49.65 45.72,52.22 45.56,53.30 45.39,54.38 45.14,54.90 44.89,55.42 44.87,56.03 44.84,56.64 44.10,56.12 43.36,55.60 42.91,55.31 42.46,55.02 42.73,54.29 42.99,53.55 43.00,52.04 43.00,50.53 43.00,49.04 43.00,47.55 43.00,45.45 43.00,43.36 42.99,41.22 42.98,39.07 42.95,36.83 42.93,34.59 42.87,32.12 42.80,29.65 42.65,27.32 42.50,24.98 42.12,22.13 41.74,19.28 41.57,16.95 41.39,14.62 40.96,12.44 40.52,10.27 40.16,8.53 39.80,6.80 39.70,5.14 39.60,3.47 39.34,2.24 39.08,1.00 38.38,-0.87 37.67,-2.76 37.53,-3.90 37.40,-5.05 36.93,-6.05 36.47,-7.06 36.05,-8.06 35.64,-9.06 35.46,-9.76 35.27,-10.45 34.86,-11.44 34.45,-12.44 33.73,-12.84 33.01,-13.24 32.25,-13.21 31.49,-13.19 30.40,-13.12 29.32,-13.06 28.13,-12.90 26.94,-12.74 25.45,-12.35 23.97,-11.97 21.72,-10.99 19.47,-10.02 16.26,-8.41 13.05,-6.80 6.74,-3.05 0.42,0.69 0.34,0.73 0.25,0.77 0.15,0.79 0.05,0.81 -0.04,0.80 -0.13,0.80 -0.23,0.77 -0.32,0.74 -0.41,0.69 -0.49,0.64 -0.56,0.57 -0.63,0.51 -0.68,0.42 -0.74,0.34 -0.77,0.24 -0.80,0.15 -0.80,0.05 -0.81,-0.04 -0.79,-0.13 -0.78,-0.23 -0.74,-0.32 -0.70,-0.41 -0.64,-0.49 -0.58,-0.57 -0.50,-0.63 -0.42,-0.69 -0.42,-0.69 L -0.42,-0.69 Z"/></g><g transform="translate(55.49077829552289 109.25260719023103) rotate(0 22.745389147761216 29.465617759599866)" stroke="none"><path fill="#e9ecef" d="M -0.32,-0.75 Q -0.32,-0.75 5.87,-3.53 12.07,-6.31 15.70,-7.19 19.32,-8.07 21.83,-8.16 24.34,-8.25 26.63,-7.98 28.92,-7.72 30.81,-7.31 32.71,-6.89 34.83,-5.78 36.95,-4.67 38.20,-3.55 39.46,-2.42 40.60,-1.02 41.75,0.37 42.60,2.26 43.44,4.15 43.81,5.91 44.18,7.67 44.61,9.21 45.04,10.75 45.26,12.72 45.47,14.69 45.56,16.71 45.65,18.73 45.99,20.99 46.32,23.25 46.18,26.15 46.04,29.06 45.98,31.70 45.91,34.34 45.59,37.03 45.26,39.72 44.82,42.63 44.39,45.54 43.90,48.00 43.42,50.45 42.91,52.68 42.41,54.92 42.21,56.97 42.01,59.01 41.92,60.78 41.84,62.54 41.80,63.89 41.77,65.23 41.75,66.10 41.74,66.96 41.74,67.04 41.73,67.11 41.71,67.28 41.69,67.45 41.62,67.61 41.56,67.76 41.46,67.90 41.36,68.04 41.23,68.15 41.10,68.26 40.95,68.34 40.80,68.41 40.64,68.45 40.47,68.49 40.30,68.48 40.13,68.48 39.97,68.44 39.80,68.39 39.65,68.31 39.51,68.23 39.38,68.12 39.26,68.00 39.16,67.86 39.07,67.72 39.01,67.56 38.95,67.40 38.94,67.23 38.92,67.06 38.29,64.68 37.65,62.30 37.62,62.20 37.60,62.10 37.60,61.99 37.61,61.88 37.65,61.79 37.69,61.69 37.76,61.61 37.83,61.53 37.92,61.47 38.01,61.42 38.11,61.39 38.22,61.37 38.32,61.38 38.43,61.40 38.52,61.44 38.62,61.49 38.70,61.56 38.77,61.63 38.82,61.73 38.87,61.82 38.89,61.93 38.91,62.03 38.89,62.14 38.87,62.24 38.82,62.33 38.77,62.43 38.69,62.50 38.61,62.57 38.52,62.62 38.42,62.66 38.32,62.67 38.21,62.68 38.11,62.66 38.00,62.64 37.91,62.58 37.82,62.53 37.75,62.45 37.68,62.36 37.65,62.27 37.61,62.17 37.60,62.06 37.60,61.95 37.62,61.85 37.65,61.75 37.71,61.66 37.77,61.57 37.86,61.51 37.94,61.45 38.04,61.41 38.15,61.38 38.25,61.38 38.36,61.38 38.46,61.41 38.56,61.45 38.64,61.51 38.73,61.58 38.79,61.67 38.85,61.75 38.85,61.75 38.85,61.75 40.29,64.43 41.73,67.11 41.71,67.28 41.69,67.45 41.62,67.61 41.56,67.76 41.46,67.90 41.36,68.04 41.23,68.15 41.10,68.26 40.95,68.34 40.80,68.41 40.64,68.45 40.47,68.49 40.30,68.48 40.13,68.48 39.97,68.44 39.80,68.39 39.65,68.31 39.51,68.23 39.38,68.12 39.26,68.00 39.16,67.86 39.07,67.72 39.01,67.56 38.95,67.40 38.94,67.23 38.92,67.06 38.93,66.99 38.94,66.91 38.96,66.03 38.98,65.15 39.02,63.78 39.06,62.40 39.16,60.57 39.26,58.74 39.48,56.53 39.71,54.31 40.21,52.11 40.71,49.91 41.19,47.52 41.67,45.13 42.10,42.26 42.54,39.38 42.86,36.83 43.19,34.27 43.26,31.59 43.33,28.90 43.50,26.26 43.67,23.62 43.35,21.22 43.02,18.83 42.95,16.89 42.89,14.94 42.73,13.18 42.58,11.42 42.14,9.79 41.71,8.15 41.44,6.64 41.16,5.12 40.50,3.50 39.84,1.87 38.83,0.60 37.82,-0.66 36.81,-1.64 35.80,-2.61 33.99,-3.63 32.18,-4.66 30.41,-5.07 28.64,-5.48 26.52,-5.76 24.39,-6.04 22.10,-6.01 19.81,-5.97 16.35,-5.18 12.89,-4.38 6.60,-1.81 0.32,0.75 0.22,0.78 0.13,0.81 0.03,0.81 -0.06,0.82 -0.16,0.80 -0.25,0.78 -0.34,0.74 -0.43,0.69 -0.51,0.63 -0.59,0.57 -0.65,0.49 -0.71,0.41 -0.75,0.32 -0.79,0.23 -0.80,0.13 -0.82,0.03 -0.81,-0.06 -0.80,-0.16 -0.77,-0.25 -0.74,-0.35 -0.69,-0.43 -0.64,-0.52 -0.56,-0.58 -0.49,-0.65 -0.41,-0.70 -0.32,-0.75 -0.32,-0.75 L -0.32,-0.75 Z"/></g><g transform="translate(51.35525299592973 108.2187258653328) rotate(0 -9.304931924084258 43.939956308175226)" stroke="none"><path fill="#e9ecef" d="M 0.68,0.43 Q 0.68,0.43 -6.86,12.73 -14.41,25.03 -17.96,31.38 -21.52,37.72 -23.00,40.97 -24.49,44.22 -24.78,47.22 -25.07,50.22 -25.21,52.72 -25.36,55.23 -24.84,57.32 -24.32,59.40 -23.53,61.14 -22.75,62.89 -21.81,64.84 -20.87,66.80 -19.61,68.76 -18.35,70.72 -17.19,72.80 -16.02,74.88 -14.41,76.84 -12.79,78.79 -10.69,80.46 -8.58,82.12 -7.35,83.17 -6.13,84.22 -4.93,84.54 -3.74,84.86 -2.49,85.36 -1.24,85.86 -0.27,86.03 0.69,86.19 1.68,86.27 2.67,86.35 3.67,86.38 4.66,86.42 5.19,85.96 5.72,85.51 6.31,85.22 6.91,84.93 7.79,83.72 8.68,82.50 8.72,82.41 8.77,82.31 8.85,82.24 8.93,82.17 9.02,82.12 9.12,82.07 9.22,82.06 9.33,82.05 9.43,82.07 9.54,82.09 9.63,82.15 9.72,82.20 9.79,82.28 9.86,82.36 9.90,82.46 9.94,82.56 9.95,82.66 9.95,82.77 9.93,82.87 9.90,82.97 9.84,83.06 9.78,83.15 9.70,83.22 9.61,83.28 9.51,83.32 9.41,83.35 9.31,83.35 9.20,83.35 9.10,83.32 9.00,83.29 8.91,83.23 8.83,83.16 8.77,83.07 8.71,82.99 8.68,82.89 8.65,82.78 8.65,82.68 8.66,82.57 8.70,82.47 8.73,82.37 8.80,82.29 8.87,82.21 8.96,82.15 9.05,82.10 9.15,82.07 9.26,82.05 9.36,82.06 9.47,82.07 9.57,82.11 9.66,82.16 9.74,82.23 9.82,82.30 9.87,82.40 9.92,82.49 9.94,82.59 9.96,82.70 9.94,82.80 9.92,82.91 9.92,82.91 9.92,82.91 8.87,85.12 7.81,87.34 7.27,87.92 6.73,88.51 5.69,88.86 4.64,89.22 3.54,89.18 2.44,89.14 1.31,89.04 0.18,88.94 -1.05,88.70 -2.28,88.45 -3.43,87.98 -4.57,87.51 -6.21,86.94 -7.84,86.36 -9.08,85.32 -10.31,84.27 -12.61,82.40 -14.90,80.52 -16.63,78.36 -18.37,76.19 -19.49,74.17 -20.61,72.15 -21.94,70.05 -23.26,67.95 -24.21,65.95 -25.16,63.95 -26.02,61.98 -26.87,60.01 -27.41,57.56 -27.96,55.11 -27.80,52.52 -27.65,49.94 -27.24,46.57 -26.83,43.19 -25.27,39.84 -23.71,36.49 -20.11,30.10 -16.50,23.71 -8.59,11.63 -0.68,-0.43 -0.62,-0.51 -0.56,-0.58 -0.48,-0.64 -0.40,-0.70 -0.31,-0.74 -0.22,-0.78 -0.12,-0.79 -0.03,-0.81 0.06,-0.80 0.16,-0.79 0.25,-0.76 0.35,-0.73 0.43,-0.68 0.51,-0.63 0.58,-0.56 0.65,-0.48 0.70,-0.40 0.75,-0.31 0.77,-0.22 0.80,-0.12 0.80,-0.03 0.81,0.06 0.79,0.16 0.77,0.25 0.73,0.34 0.68,0.43 0.68,0.43 L 0.68,0.43 Z"/></g><g transform="translate(46.1858463714384 118.55753911431523) rotate(0 2.067762649796691 30.49949908449807)" stroke="none"><path fill="#e9ecef" d="M 0.74,0.12 Q 0.74,0.12 -1.97,18.29 -4.70,36.46 -5.96,44.75 -7.23,53.05 -7.15,57.36 -7.08,61.67 -6.47,63.99 -5.87,66.31 -5.09,67.47 -4.31,68.63 -3.47,69.36 -2.63,70.09 -1.83,70.33 -1.03,70.58 0.13,70.70 1.29,70.82 2.57,70.58 3.84,70.35 5.10,70.24 6.36,70.14 7.33,69.82 8.30,69.51 9.14,69.34 9.98,69.18 10.98,69.10 11.98,69.03 12.69,69.00 13.40,68.97 13.99,68.95 14.58,68.93 14.74,68.95 14.91,68.96 15.07,69.02 15.23,69.07 15.37,69.16 15.51,69.25 15.62,69.37 15.74,69.49 15.82,69.63 15.90,69.78 15.95,69.94 16.00,70.10 16.00,70.26 16.01,70.43 15.97,70.59 15.94,70.76 15.87,70.91 15.80,71.06 15.69,71.19 15.59,71.31 15.45,71.41 15.32,71.51 15.17,71.58 15.01,71.64 14.85,71.67 14.68,71.70 13.93,70.85 13.18,70.00 12.59,69.42 11.99,68.84 11.43,67.94 10.87,67.04 10.35,66.07 9.83,65.11 9.32,64.11 8.80,63.11 8.01,61.84 7.23,60.58 6.25,58.46 5.27,56.34 4.26,53.96 3.26,51.58 2.51,48.39 1.75,45.19 1.14,42.07 0.53,38.96 0.27,35.78 0.00,32.60 0.19,29.70 0.38,26.79 0.46,24.14 0.54,21.49 0.57,18.58 0.61,15.67 0.63,12.95 0.64,10.22 0.65,7.58 0.66,4.94 0.66,2.62 0.67,0.31 0.67,-1.55 0.67,-3.43 0.67,-5.12 0.67,-6.82 1.00,-8.02 1.32,-9.22 1.43,-10.14 1.53,-11.06 1.63,-11.60 1.73,-12.15 2.26,-12.39 2.78,-12.64 2.38,-11.54 1.98,-10.44 1.49,-9.10 1.00,-7.75 0.51,-6.03 0.01,-4.30 -0.79,-1.47 -1.60,1.36 -2.23,4.02 -2.87,6.68 -3.74,9.64 -4.62,12.60 -5.58,15.93 -6.54,19.25 -7.24,22.40 -7.93,25.55 -8.22,28.61 -8.51,31.67 -8.93,35.39 -9.36,39.12 -9.24,42.38 -9.11,45.64 -8.77,48.18 -8.43,50.73 -7.42,53.49 -6.42,56.24 -5.40,58.62 -4.38,61.00 -3.37,62.86 -2.36,64.73 -1.38,66.05 -0.40,67.38 0.83,68.47 2.06,69.56 3.15,70.31 4.24,71.06 5.77,71.62 7.31,72.18 8.21,72.43 9.11,72.68 9.94,72.20 10.76,71.72 11.22,71.34 11.69,70.96 12.05,70.09 12.41,69.23 12.57,68.06 12.74,66.90 12.83,65.79 12.92,64.67 12.96,63.33 12.99,61.98 12.75,61.01 12.51,60.04 11.94,59.51 11.37,58.98 10.78,58.36 10.19,57.74 9.13,56.95 8.07,56.17 6.71,55.22 5.35,54.27 3.76,52.57 2.17,50.88 0.87,48.92 -0.41,46.95 -1.29,44.86 -2.17,42.76 -2.84,40.66 -3.51,38.56 -3.52,35.41 -3.52,32.25 -3.51,29.81 -3.50,27.37 -2.89,24.41 -2.28,21.44 -1.73,18.19 -1.18,14.94 -0.65,12.34 -0.11,9.73 0.09,7.80 0.31,5.88 0.41,4.46 0.50,3.05 0.87,2.01 1.25,0.97 0.81,1.50 0.37,2.02 -0.47,3.90 -1.31,5.78 -2.32,8.40 -3.33,11.01 -3.73,14.08 -4.13,17.14 -4.31,20.53 -4.49,23.92 -4.57,27.45 -4.64,30.97 -4.38,34.49 -4.12,38.01 -3.71,42.49 -3.30,46.97 -2.26,50.54 -1.21,54.10 -0.47,56.23 0.26,58.35 0.87,60.17 1.49,61.98 2.30,63.54 3.12,65.10 3.78,65.81 4.45,66.52 4.51,66.68 4.57,66.85 4.59,67.02 4.61,67.20 4.59,67.37 4.57,67.55 4.50,67.71 4.44,67.87 4.34,68.02 4.24,68.16 4.10,68.28 3.97,68.39 3.82,68.47 3.66,68.55 3.49,68.59 3.32,68.64 3.14,68.63 2.97,68.63 2.80,68.59 2.63,68.55 2.47,68.46 2.32,68.38 2.19,68.26 2.05,68.15 1.96,68.00 1.86,67.85 2.12,66.64 2.39,65.42 2.44,63.34 2.49,61.27 2.25,58.29 2.00,55.31 1.60,52.26 1.20,49.21 0.74,46.13 0.27,43.05 -0.22,39.65 -0.72,36.25 -1.22,33.03 -1.73,29.81 -2.24,26.96 -2.75,24.12 -2.69,21.56 -2.62,19.01 -2.59,16.81 -2.55,14.61 -2.54,13.08 -2.53,11.55 -2.52,10.04 -2.51,8.53 -2.81,7.85 -3.11,7.16 -3.08,6.99 -3.06,6.81 -3.00,6.64 -2.93,6.48 -2.83,6.33 -2.73,6.18 -2.60,6.07 -2.46,5.95 -2.30,5.87 -2.15,5.78 -1.97,5.74 -1.80,5.70 -1.62,5.70 -1.44,5.70 -1.27,5.74 -1.10,5.79 -0.94,5.87 -0.78,5.95 -0.65,6.07 -0.52,6.19 -0.42,6.34 -0.31,6.49 -0.25,6.65 -0.19,6.82 -0.17,7.00 -0.15,7.17 -0.82,8.02 -1.50,8.87 -2.06,10.79 -2.62,12.71 -2.92,15.28 -3.21,17.86 -3.65,21.39 -4.08,24.93 -4.26,29.05 -4.44,33.17 -3.93,37.20 -3.42,41.23 -2.62,45.32 -1.81,49.41 -0.89,52.60 0.03,55.78 1.58,59.14 3.13,62.49 4.32,64.14 5.52,65.78 5.35,66.42 5.19,67.06 6.03,66.21 6.87,65.36 7.41,64.03 7.95,62.69 9.08,59.54 10.21,56.39 10.99,53.95 11.77,51.52 11.81,51.42 11.85,51.33 11.93,51.25 12.00,51.17 12.09,51.12 12.19,51.07 12.29,51.05 12.40,51.03 12.50,51.05 12.61,51.06 12.70,51.11 12.79,51.16 12.87,51.24 12.94,51.32 12.99,51.41 13.03,51.51 13.05,51.61 13.06,51.72 13.04,51.82 13.01,51.93 12.96,52.02 12.91,52.11 12.83,52.18 12.75,52.25 12.65,52.29 12.55,52.33 12.44,52.34 12.34,52.34 12.23,52.32 12.13,52.29 12.04,52.23 11.95,52.17 11.89,52.09 11.82,52.00 11.79,51.90 11.75,51.80 11.75,51.70 11.75,51.59 11.79,51.49 11.82,51.39 11.88,51.30 11.95,51.22 12.03,51.16 12.12,51.10 12.22,51.07 12.32,51.04 12.43,51.04 12.54,51.05 12.64,51.08 12.73,51.12 12.82,51.19 12.90,51.26 12.95,51.35 13.01,51.44 13.03,51.54 13.06,51.65 13.05,51.75 13.04,51.86 13.04,51.86 13.04,51.86 12.50,54.36 11.96,56.86 11.30,60.38 10.65,63.90 9.79,65.69 8.93,67.47 7.86,68.36 6.80,69.25 4.96,68.39 3.12,67.52 1.78,65.63 0.44,63.74 -1.18,60.17 -2.81,56.61 -3.76,53.30 -4.72,49.99 -5.54,45.79 -6.36,41.60 -6.88,37.32 -7.40,33.04 -7.21,28.81 -7.02,24.57 -6.58,21.04 -6.15,17.50 -5.78,14.62 -5.42,11.75 -4.26,9.46 -3.11,7.16 -3.08,6.99 -3.06,6.81 -3.00,6.64 -2.93,6.48 -2.83,6.33 -2.73,6.18 -2.60,6.07 -2.46,5.95 -2.30,5.87 -2.15,5.78 -1.97,5.74 -1.80,5.70 -1.62,5.70 -1.44,5.70 -1.27,5.74 -1.10,5.79 -0.94,5.87 -0.78,5.95 -0.65,6.07 -0.52,6.19 -0.42,6.34 -0.31,6.49 -0.25,6.65 -0.19,6.82 -0.17,7.00 -0.15,7.17 0.13,7.80 0.42,8.43 0.42,10.01 0.42,11.58 0.40,13.12 0.39,14.66 0.35,16.88 0.32,19.10 0.23,21.36 0.14,23.61 0.65,26.48 1.17,29.35 1.67,32.58 2.18,35.82 2.68,39.21 3.17,42.61 3.64,45.72 4.11,48.83 4.51,51.95 4.92,55.08 5.17,58.25 5.41,61.41 4.93,63.97 4.45,66.52 4.51,66.68 4.57,66.85 4.59,67.02 4.61,67.20 4.59,67.37 4.57,67.55 4.50,67.71 4.44,67.87 4.34,68.02 4.24,68.16 4.10,68.28 3.97,68.39 3.82,68.47 3.66,68.55 3.49,68.59 3.32,68.64 3.14,68.63 2.97,68.63 2.80,68.59 2.63,68.55 2.47,68.46 2.32,68.38 2.19,68.26 2.05,68.15 1.96,68.00 1.86,67.85 1.20,67.15 0.55,66.45 -0.34,64.69 -1.25,62.92 -1.86,61.11 -2.47,59.30 -3.23,57.10 -3.99,54.90 -5.08,51.07 -6.17,47.24 -6.58,42.73 -6.99,38.22 -7.25,34.56 -7.52,30.91 -7.43,27.34 -7.35,23.77 -7.16,20.26 -6.97,16.75 -6.48,13.38 -6.00,10.00 -4.94,7.26 -3.88,4.52 -2.65,2.17 -1.41,-0.16 -0.12,-0.95 1.17,-1.74 2.37,-1.12 3.57,-0.51 3.76,0.59 3.94,1.71 3.64,2.49 3.34,3.27 3.24,4.73 3.15,6.20 2.91,8.25 2.68,10.30 2.15,12.86 1.62,15.42 1.06,18.73 0.51,22.04 -0.07,24.72 -0.65,27.39 -0.66,29.83 -0.67,32.27 -0.73,35.01 -0.78,37.74 -0.16,39.71 0.45,41.67 1.21,43.54 1.96,45.40 3.11,47.18 4.26,48.95 5.62,50.45 6.99,51.95 8.38,52.93 9.78,53.90 11.02,54.85 12.25,55.79 12.86,56.45 13.48,57.10 14.33,58.17 15.19,59.24 15.51,60.64 15.82,62.04 15.78,63.47 15.74,64.91 15.63,66.13 15.53,67.36 15.24,68.90 14.95,70.44 14.25,71.75 13.54,73.06 12.90,73.59 12.25,74.12 11.45,74.57 10.65,75.03 9.61,75.21 8.56,75.39 7.44,75.10 6.32,74.80 4.49,74.08 2.66,73.37 1.43,72.51 0.20,71.64 -1.22,70.35 -2.65,69.05 -3.74,67.55 -4.82,66.06 -5.89,64.08 -6.95,62.10 -8.00,59.64 -9.05,57.19 -10.12,54.15 -11.20,51.11 -11.55,48.42 -11.90,45.73 -12.01,42.27 -12.12,38.81 -11.70,35.11 -11.27,31.40 -10.96,28.18 -10.64,24.95 -9.93,21.71 -9.21,18.47 -8.25,15.14 -7.28,11.82 -6.42,8.93 -5.57,6.03 -4.92,3.31 -4.27,0.59 -3.46,-2.23 -2.64,-5.07 -2.12,-6.88 -1.60,-8.70 -1.09,-10.11 -0.58,-11.51 -0.03,-12.68 0.51,-13.84 1.96,-13.90 3.42,-13.95 3.86,-13.25 4.30,-12.56 4.29,-11.64 4.29,-10.72 4.14,-9.58 3.99,-8.45 3.72,-7.62 3.45,-6.79 3.45,-5.11 3.45,-3.43 3.45,-1.55 3.45,0.31 3.45,2.63 3.45,4.94 3.44,7.59 3.44,10.24 3.43,12.97 3.42,15.70 3.38,18.64 3.35,21.57 3.27,24.27 3.19,26.98 3.00,29.68 2.82,32.38 3.06,35.40 3.31,38.42 3.91,41.48 4.50,44.55 5.19,47.52 5.87,50.49 6.85,52.82 7.84,55.15 8.74,57.12 9.64,59.09 10.47,60.45 11.31,61.81 11.81,62.79 12.32,63.77 12.80,64.68 13.28,65.58 13.69,66.27 14.09,66.97 14.56,67.49 15.03,68.02 15.46,68.72 15.89,69.43 15.24,69.18 14.58,68.93 14.74,68.95 14.91,68.96 15.07,69.01 15.23,69.07 15.37,69.16 15.51,69.25 15.62,69.37 15.74,69.49 15.82,69.63 15.90,69.78 15.95,69.94 16.00,70.10 16.00,70.26 16.01,70.43 15.97,70.59 15.94,70.76 15.87,70.91 15.80,71.06 15.69,71.19 15.59,71.31 15.45,71.41 15.32,71.51 15.17,71.58 15.01,71.64 14.85,71.67 14.68,71.70 14.09,71.70 13.50,71.71 12.83,71.73 12.16,71.75 11.32,71.80 10.48,71.85 9.78,71.97 9.09,72.09 7.84,72.46 6.59,72.82 5.43,72.91 4.26,73.00 2.63,73.22 1.01,73.45 -0.45,73.26 -1.93,73.06 -3.13,72.57 -4.33,72.07 -5.41,71.06 -6.49,70.05 -7.42,68.51 -8.36,66.98 -8.99,64.35 -9.62,61.72 -9.67,57.20 -9.71,52.67 -8.44,44.36 -7.18,36.06 -3.96,17.96 -0.74,-0.12 -0.72,-0.21 -0.69,-0.29 -0.65,-0.37 -0.60,-0.45 -0.54,-0.52 -0.47,-0.58 -0.40,-0.63 -0.32,-0.68 -0.23,-0.71 -0.15,-0.74 -0.05,-0.75 0.03,-0.75 0.12,-0.74 0.21,-0.72 0.29,-0.69 0.38,-0.65 0.45,-0.60 0.52,-0.54 0.58,-0.47 0.64,-0.40 0.68,-0.32 0.72,-0.23 0.73,-0.14 0.75,-0.06 0.75,0.03 0.74,0.12 0.74,0.12 L 0.74,0.12 Z"/></g><g transform="translate(50.32137167103156 105.1170818906381) rotate(0 21.194567160413953 14.991279211024462)" stroke="none"><path fill="#e9ecef" d="M 0.55,-0.73 Q 0.55,-0.73 8.05,4.83 15.54,10.39 19.03,13.40 22.53,16.41 24.96,19.22 27.39,22.03 28.75,24.15 30.12,26.28 31.27,28.03 32.43,29.79 33.24,31.16 34.06,32.53 34.47,34.17 34.88,35.80 35.04,36.80 35.20,37.80 34.97,38.45 34.75,39.10 34.75,39.26 34.76,39.42 34.72,39.57 34.69,39.73 34.62,39.88 34.55,40.02 34.45,40.14 34.34,40.27 34.22,40.36 34.09,40.46 33.94,40.52 33.79,40.58 33.63,40.61 33.47,40.63 33.31,40.62 33.15,40.60 33.00,40.55 32.85,40.50 32.71,40.41 32.58,40.32 32.47,40.21 32.36,40.09 32.28,39.95 32.20,39.81 32.16,39.66 32.11,39.50 30.91,38.92 29.71,38.35 28.19,36.08 26.67,33.81 25.20,31.43 23.73,29.04 21.94,26.59 20.16,24.14 18.24,21.94 16.32,19.74 14.28,17.29 12.25,14.83 10.48,12.59 8.72,10.36 7.64,8.76 6.56,7.16 6.42,6.52 6.28,5.89 6.20,5.74 6.13,5.59 6.09,5.42 6.05,5.25 6.05,5.08 6.05,4.92 6.09,4.75 6.13,4.59 6.22,4.44 6.30,4.29 6.41,4.16 6.52,4.04 6.66,3.94 6.80,3.84 6.96,3.79 7.12,3.73 7.29,3.71 7.46,3.69 7.63,3.71 7.80,3.73 7.96,3.80 8.11,3.86 8.25,3.96 8.39,4.05 8.50,4.18 8.61,4.31 9.67,5.43 10.73,6.55 12.09,7.95 13.45,9.34 15.43,10.75 17.41,12.16 19.27,14.06 21.13,15.96 23.11,18.25 25.08,20.55 26.81,22.72 28.54,24.88 30.78,27.90 33.01,30.91 34.60,33.75 36.19,36.58 37.19,39.35 38.19,42.11 39.19,45.03 40.20,47.95 40.92,50.08 41.65,52.21 42.26,54.01 42.86,55.81 43.15,57.58 43.44,59.36 43.83,60.60 44.22,61.84 44.09,62.34 43.97,62.84 44.00,63.02 44.04,63.19 44.03,63.37 44.01,63.54 43.96,63.71 43.91,63.88 43.82,64.03 43.73,64.19 43.60,64.31 43.48,64.44 43.32,64.53 43.17,64.62 43.00,64.67 42.84,64.73 42.66,64.74 42.48,64.75 42.31,64.72 42.13,64.68 41.97,64.61 41.81,64.54 41.67,64.43 41.53,64.32 41.42,64.18 41.31,64.04 41.24,63.88 41.16,63.72 40.86,63.19 40.56,62.66 40.06,61.06 39.56,59.46 38.49,56.49 37.42,53.53 36.09,50.52 34.75,47.51 33.00,43.85 31.24,40.19 29.60,36.53 27.95,32.87 26.35,28.92 24.75,24.97 22.93,21.91 21.11,18.86 18.84,15.15 16.57,11.44 15.04,9.31 13.51,7.18 12.71,5.75 11.92,4.32 11.32,4.14 10.72,3.97 10.64,3.80 10.56,3.64 10.53,3.47 10.49,3.29 10.50,3.11 10.51,2.93 10.56,2.76 10.61,2.59 10.70,2.44 10.78,2.28 10.91,2.15 11.03,2.02 11.18,1.93 11.33,1.83 11.50,1.77 11.67,1.72 11.85,1.70 12.03,1.69 12.21,1.72 12.38,1.75 12.55,1.82 12.71,1.89 12.86,1.99 13.00,2.10 13.11,2.24 13.23,2.38 13.44,3.18 13.66,3.99 14.23,4.92 14.80,5.85 15.89,7.11 16.98,8.38 18.38,10.17 19.79,11.97 21.53,13.87 23.27,15.77 26.14,19.30 29.00,22.84 31.69,26.10 34.38,29.37 36.75,32.90 39.13,36.43 41.07,40.69 43.01,44.94 44.42,48.21 45.82,51.47 47.02,54.67 48.22,57.86 49.32,60.69 50.42,63.51 50.92,65.71 51.42,67.91 51.62,69.40 51.82,70.88 51.84,71.06 51.85,71.24 51.83,71.42 51.80,71.59 51.73,71.76 51.67,71.93 51.56,72.07 51.46,72.22 51.32,72.34 51.18,72.45 51.02,72.53 50.86,72.61 50.68,72.65 50.51,72.69 50.33,72.69 50.15,72.68 49.98,72.63 49.80,72.59 49.64,72.50 49.49,72.41 49.36,72.29 49.22,72.17 49.12,72.02 49.03,71.87 48.97,71.70 48.91,71.53 48.95,72.06 49.00,72.59 47.80,71.56 46.61,70.53 45.26,67.91 43.91,65.29 42.48,62.14 41.05,58.99 39.54,55.26 38.04,51.52 36.23,47.60 34.42,43.68 32.47,39.96 30.52,36.23 28.78,32.52 27.04,28.81 25.43,25.80 23.82,22.78 21.98,20.07 20.14,17.35 18.49,15.33 16.84,13.31 15.26,11.57 13.67,9.83 12.70,8.79 11.73,7.75 10.86,7.53 9.99,7.31 9.85,7.20 9.71,7.08 9.60,6.94 9.49,6.80 9.42,6.63 9.35,6.46 9.32,6.29 9.29,6.11 9.30,5.93 9.31,5.75 9.37,5.58 9.43,5.40 9.52,5.25 9.62,5.10 9.75,4.97 9.88,4.85 10.03,4.76 10.19,4.66 10.36,4.61 10.53,4.56 10.72,4.55 10.90,4.55 11.07,4.58 11.25,4.62 11.41,4.69 11.58,4.77 12.88,6.85 14.19,8.94 16.31,11.05 18.44,13.17 21.46,16.21 24.49,19.25 27.27,22.03 30.04,24.81 32.67,27.15 35.31,29.49 37.68,32.03 40.05,34.58 41.95,36.85 43.86,39.13 45.31,41.35 46.75,43.57 47.96,45.71 49.17,47.85 50.01,49.69 50.84,51.54 51.50,53.56 52.17,55.59 52.47,58.05 52.78,60.51 52.59,62.26 52.41,64.01 51.77,65.36 51.14,66.70 50.25,67.06 49.37,67.42 48.44,67.09 47.51,66.76 46.45,65.23 45.39,63.70 44.41,61.58 43.43,59.46 42.42,56.76 41.41,54.07 40.10,50.88 38.80,47.70 36.48,43.12 34.16,38.54 32.28,34.78 30.39,31.03 28.97,27.60 27.55,24.17 26.37,21.57 25.20,18.97 24.15,17.36 23.10,15.74 22.37,14.76 21.64,13.78 20.76,12.80 19.88,11.82 19.20,11.10 18.53,10.37 17.87,9.38 17.21,8.38 16.65,7.98 16.09,7.58 16.01,7.42 15.93,7.26 15.89,7.08 15.86,6.91 15.86,6.73 15.87,6.55 15.91,6.37 15.96,6.20 16.05,6.04 16.14,5.88 16.26,5.75 16.39,5.62 16.54,5.52 16.69,5.42 16.86,5.36 17.03,5.31 17.21,5.29 17.39,5.27 17.57,5.30 17.75,5.32 17.91,5.39 18.08,5.46 18.22,5.57 18.37,5.68 18.49,5.81 18.60,5.95 18.77,6.66 18.94,7.37 19.48,8.20 20.01,9.02 21.38,10.55 22.75,12.08 24.24,13.65 25.73,15.22 27.55,17.08 29.37,18.93 31.37,21.25 33.37,23.56 35.38,25.70 37.38,27.83 39.38,29.59 41.38,31.36 42.95,33.42 44.52,35.49 45.44,36.62 46.36,37.75 46.45,37.91 46.54,38.06 46.59,38.24 46.64,38.41 46.64,38.59 46.65,38.77 46.62,38.95 46.58,39.12 46.50,39.29 46.42,39.45 46.31,39.59 46.19,39.73 46.05,39.84 45.91,39.94 45.74,40.02 45.57,40.09 45.40,40.11 45.22,40.14 45.04,40.13 44.86,40.11 44.69,40.06 44.52,40.00 44.36,39.90 44.21,39.80 44.09,39.67 43.96,39.54 43.45,38.42 42.95,37.30 41.86,35.76 40.76,34.23 39.37,32.03 37.98,29.84 36.24,27.48 34.49,25.11 31.94,21.40 29.39,17.68 27.41,14.60 25.43,11.53 23.72,9.06 22.00,6.59 19.81,3.78 17.61,0.98 15.75,-1.75 13.89,-4.48 12.23,-6.80 10.57,-9.12 9.26,-11.01 7.95,-12.90 6.59,-14.19 5.24,-15.48 4.27,-16.74 3.30,-17.99 2.20,-18.63 1.10,-19.27 0.21,-19.95 -0.67,-20.63 -1.34,-21.21 -2.00,-21.80 -2.62,-21.90 -3.23,-22.01 -3.93,-22.16 -4.62,-22.31 -5.20,-22.81 -5.77,-23.31 -6.50,-23.98 -7.23,-24.66 -7.79,-25.69 -8.36,-26.72 -8.88,-27.75 -9.40,-28.78 -9.93,-29.83 -10.45,-30.87 -10.42,-31.81 -10.39,-32.74 -10.02,-33.24 -9.66,-33.74 -9.19,-34.59 -8.73,-35.44 -7.68,-35.84 -6.62,-36.25 -4.98,-36.35 -3.33,-36.46 -1.78,-36.50 -0.22,-36.53 1.02,-36.55 2.27,-36.56 3.55,-36.85 4.83,-37.14 6.42,-37.28 8.00,-37.43 9.56,-37.48 11.13,-37.54 13.10,-37.26 15.07,-36.98 16.40,-36.87 17.73,-36.76 19.12,-36.57 20.52,-36.39 20.94,-35.06 21.35,-33.73 20.82,-33.17 20.28,-32.60 19.00,-32.01 17.72,-31.42 16.09,-30.63 14.46,-29.84 12.57,-28.91 10.68,-27.97 9.03,-27.00 7.38,-26.03 4.78,-24.97 2.19,-23.90 0.20,-23.16 -1.79,-22.42 -4.14,-22.61 -6.49,-22.80 -6.24,-22.84 -5.98,-22.88 -6.16,-22.90 -6.34,-22.92 -6.51,-22.99 -6.68,-23.05 -6.83,-23.15 -6.98,-23.25 -7.10,-23.38 -7.22,-23.52 -7.30,-23.68 -7.39,-23.84 -7.43,-24.01 -7.48,-24.19 -7.48,-24.37 -7.48,-24.55 -7.44,-24.72 -7.40,-24.90 -7.31,-25.06 -7.23,-25.22 -7.11,-25.35 -6.99,-25.49 -6.85,-25.59 -6.70,-25.69 -6.53,-25.76 -6.36,-25.82 -6.18,-25.85 -6.01,-25.87 -5.28,-25.99 -4.55,-26.11 -3.06,-26.45 -1.57,-26.79 -0.07,-27.22 1.43,-27.66 3.52,-28.43 5.61,-29.20 7.33,-30.09 9.05,-30.98 11.01,-31.97 12.97,-32.96 14.50,-33.42 16.04,-33.88 16.75,-34.29 17.47,-34.70 17.38,-34.55 17.29,-34.41 17.45,-34.50 17.60,-34.59 17.78,-34.65 17.95,-34.70 18.13,-34.71 18.31,-34.73 18.49,-34.69 18.67,-34.66 18.84,-34.59 19.00,-34.51 19.15,-34.40 19.29,-34.29 19.40,-34.14 19.51,-34.00 19.59,-33.84 19.66,-33.67 19.70,-33.49 19.73,-33.31 19.72,-33.13 19.71,-32.95 19.65,-32.78 19.60,-32.60 19.51,-32.45 19.41,-32.29 19.28,-32.16 19.16,-32.03 18.28,-31.84 17.40,-31.64 16.80,-31.37 16.20,-31.10 14.60,-30.65 13.00,-30.19 10.60,-29.42 8.19,-28.65 5.62,-28.00 3.05,-27.36 0.16,-26.79 -2.72,-26.21 -4.44,-25.70 -6.17,-25.18 -6.95,-24.65 -7.73,-24.12 -7.91,-24.09 -8.09,-24.06 -8.28,-24.07 -8.46,-24.08 -8.64,-24.14 -8.81,-24.20 -8.97,-24.30 -9.12,-24.39 -9.25,-24.53 -9.38,-24.66 -9.47,-24.82 -9.57,-24.98 -9.62,-25.15 -9.67,-25.33 -9.68,-25.51 -9.69,-25.70 -9.65,-25.88 -9.62,-26.06 -9.54,-26.23 -9.46,-26.39 -9.35,-26.54 -9.23,-26.68 -9.08,-26.79 -8.94,-26.90 -8.77,-26.98 -8.60,-27.05 -7.59,-26.81 -6.57,-26.58 -5.48,-26.82 -4.39,-27.06 -2.43,-27.71 -0.47,-28.36 2.39,-29.80 5.26,-31.23 8.04,-32.47 10.82,-33.71 13.56,-34.56 16.30,-35.41 18.55,-36.33 20.81,-37.25 22.82,-37.69 24.84,-38.13 26.45,-38.02 28.07,-37.90 29.40,-37.52 30.73,-37.15 31.53,-36.98 32.33,-36.80 33.31,-35.97 34.28,-35.13 35.16,-34.24 36.03,-33.35 36.56,-32.14 37.09,-30.93 37.53,-29.97 37.96,-29.01 38.99,-27.50 40.01,-26.00 40.83,-24.33 41.64,-22.65 42.49,-21.51 43.33,-20.36 44.33,-18.92 45.33,-17.47 46.07,-16.23 46.81,-14.98 47.42,-13.87 48.02,-12.75 48.59,-12.27 49.16,-11.78 49.23,-11.61 49.30,-11.43 49.32,-11.24 49.35,-11.05 49.33,-10.86 49.31,-10.67 49.24,-10.50 49.18,-10.32 49.07,-10.16 48.97,-10.00 48.83,-9.87 48.69,-9.74 48.52,-9.65 48.35,-9.56 48.17,-9.51 47.98,-9.47 47.79,-9.46 47.60,-9.46 47.42,-9.50 47.23,-9.55 47.06,-9.63 46.89,-9.72 46.75,-9.84 46.61,-9.97 46.50,-10.12 46.39,-10.27 45.59,-11.40 44.79,-12.53 44.08,-13.34 43.38,-14.15 42.18,-15.40 40.98,-16.65 39.28,-18.37 37.58,-20.10 35.91,-22.07 34.25,-24.04 32.88,-26.47 31.51,-28.90 30.70,-30.12 29.89,-31.35 29.49,-32.28 29.10,-33.21 27.75,-33.70 26.39,-34.19 25.38,-34.28 24.37,-34.37 23.01,-34.43 21.66,-34.49 19.89,-34.52 18.13,-34.55 16.00,-34.27 13.87,-33.99 12.20,-33.32 10.54,-32.65 9.19,-32.06 7.84,-31.47 6.44,-30.66 5.04,-29.85 3.91,-28.96 2.78,-28.07 2.00,-27.39 1.21,-26.71 0.68,-26.39 0.16,-26.07 0.08,-25.56 0.01,-25.05 -0.14,-24.93 -0.29,-24.82 -0.47,-24.75 -0.65,-24.68 -0.84,-24.65 -1.03,-24.62 -1.22,-24.64 -1.41,-24.66 -1.59,-24.73 -1.77,-24.79 -1.93,-24.90 -2.09,-25.00 -2.22,-25.14 -2.36,-25.28 -2.45,-25.45 -2.54,-25.62 -2.59,-25.81 -2.64,-25.99 -2.65,-26.18 -2.65,-26.37 -2.61,-26.56 -2.57,-26.75 -2.48,-26.92 -2.39,-27.09 -2.27,-27.24 -2.15,-27.39 -0.84,-28.25 0.45,-29.12 1.60,-29.77 2.74,-30.43 4.34,-31.55 5.94,-32.67 7.89,-33.80 9.85,-34.92 12.28,-35.75 14.72,-36.57 16.82,-37.46 18.92,-38.36 20.76,-39.06 22.60,-39.75 24.28,-40.35 25.96,-40.95 28.22,-41.51 30.49,-42.08 32.41,-42.33 34.33,-42.58 35.93,-42.38 37.52,-42.17 39.55,-41.10 41.58,-40.04 43.09,-38.61 44.61,-37.17 45.60,-35.57 46.60,-33.97 47.31,-32.37 48.02,-30.78 48.60,-29.55 49.17,-28.33 49.48,-26.72 49.79,-25.11 49.90,-23.53 50.02,-21.96 50.04,-20.90 50.05,-19.85 49.04,-18.85 48.04,-17.85 47.27,-17.95 46.50,-18.04 45.69,-18.93 44.89,-19.81 44.30,-21.13 43.72,-22.45 42.95,-23.75 42.19,-25.05 41.24,-26.86 40.28,-28.67 38.75,-30.82 37.22,-32.97 35.70,-34.76 34.18,-36.54 32.77,-37.49 31.36,-38.43 29.82,-39.48 28.27,-40.53 27.43,-40.92 26.58,-41.30 25.87,-41.49 25.17,-41.68 25.00,-41.78 24.84,-41.89 24.71,-42.03 24.57,-42.16 24.47,-42.33 24.37,-42.50 24.32,-42.68 24.26,-42.87 24.26,-43.06 24.25,-43.26 24.28,-43.45 24.32,-43.64 24.40,-43.81 24.49,-43.99 24.61,-44.14 24.73,-44.29 24.88,-44.41 25.04,-44.52 25.22,-44.60 25.39,-44.68 25.58,-44.71 25.78,-44.74 25.97,-44.73 26.16,-44.71 26.35,-44.65 26.53,-44.59 26.99,-43.36 27.45,-42.14 27.69,-41.60 27.94,-41.05 28.54,-40.32 29.15,-39.58 30.01,-38.64 30.87,-37.70 32.13,-36.40 33.38,-35.11 34.81,-33.66 36.24,-32.22 37.44,-31.01 38.64,-29.80 39.53,-28.59 40.42,-27.39 41.01,-26.68 41.61,-25.96 43.19,-25.15 44.78,-24.34 44.84,-24.30 44.91,-24.25 44.96,-24.19 45.01,-24.13 45.04,-24.06 45.07,-23.98 45.09,-23.91 45.11,-23.83 45.10,-23.75 45.10,-23.67 45.08,-23.59 45.06,-23.52 45.02,-23.45 44.98,-23.38 44.92,-23.32 44.87,-23.27 44.80,-23.22 44.74,-23.18 44.66,-23.16 44.59,-23.13 44.51,-23.12 44.43,-23.12 44.35,-23.13 44.27,-23.14 44.20,-23.17 44.13,-23.20 44.04,-23.71 43.96,-24.21 44.04,-24.27 44.12,-24.34 44.22,-24.38 44.32,-24.42 44.43,-24.42 44.53,-24.43 44.63,-24.40 44.74,-24.37 44.82,-24.31 44.91,-24.24 44.97,-24.16 45.04,-24.07 45.07,-23.97 45.10,-23.87 45.10,-23.76 45.10,-23.66 45.06,-23.56 45.03,-23.46 44.96,-23.37 44.90,-23.29 44.81,-23.23 44.72,-23.17 44.62,-23.15 44.51,-23.12 44.41,-23.13 44.30,-23.14 44.20,-23.18 44.11,-23.22 44.03,-23.29 43.95,-23.36 43.89,-23.45 43.84,-23.54 43.82,-23.64 43.80,-23.75 43.81,-23.85 43.82,-23.96 43.87,-24.06 43.91,-24.15 43.99,-24.23 44.06,-24.30 44.16,-24.35 44.25,-24.40 44.36,-24.42 44.46,-24.43 44.57,-24.41 44.67,-24.39 44.76,-24.34 44.86,-24.29 44.93,-24.21 45.00,-24.13 45.04,-24.04 45.09,-23.94 45.10,-23.83 45.11,-23.73 45.08,-23.63 45.06,-23.52 44.92,-23.93 44.78,-24.34 44.84,-24.30 44.91,-24.25 44.96,-24.19 45.01,-24.13 45.04,-24.06 45.07,-23.98 45.09,-23.91 45.11,-23.83 45.10,-23.75 45.10,-23.67 45.08,-23.59 45.06,-23.52 45.02,-23.45 44.98,-23.38 44.92,-23.32 44.87,-23.27 44.80,-23.22 44.74,-23.18 44.66,-23.16 44.59,-23.13 44.51,-23.12 44.43,-23.12 44.35,-23.13 44.27,-23.14 44.20,-23.17 44.13,-23.20 42.42,-23.05 40.71,-22.89 39.96,-23.38 39.20,-23.86 38.51,-24.68 37.82,-25.50 37.09,-26.52 36.36,-27.54 35.16,-28.75 33.95,-29.96 32.51,-31.41 31.08,-32.87 29.78,-34.20 28.49,-35.54 27.55,-36.58 26.60,-37.63 25.77,-38.77 24.94,-39.91 25.05,-40.80 25.17,-41.68 25.00,-41.78 24.84,-41.89 24.71,-42.03 24.57,-42.16 24.47,-42.33 24.37,-42.50 24.32,-42.68 24.26,-42.87 24.26,-43.06 24.25,-43.26 24.28,-43.45 24.32,-43.64 24.40,-43.81 24.49,-43.99 24.61,-44.14 24.73,-44.29 24.88,-44.41 25.04,-44.52 25.22,-44.60 25.39,-44.68 25.58,-44.71 25.78,-44.74 25.97,-44.73 26.16,-44.71 26.35,-44.65 26.53,-44.59 27.23,-44.40 27.93,-44.21 29.00,-43.70 30.07,-43.19 31.63,-42.13 33.20,-41.07 34.90,-39.85 36.61,-38.64 38.22,-36.73 39.84,-34.83 41.48,-32.50 43.12,-30.16 44.04,-28.41 44.96,-26.66 45.81,-25.19 46.66,-23.71 47.21,-22.28 47.77,-20.86 47.38,-20.49 46.99,-20.11 46.92,-20.93 46.85,-21.74 46.75,-23.15 46.66,-24.56 46.47,-25.78 46.29,-27.01 45.70,-28.25 45.12,-29.49 44.49,-30.91 43.87,-32.33 43.13,-33.62 42.38,-34.91 41.20,-36.10 40.02,-37.28 38.51,-38.16 37.00,-39.05 35.85,-39.24 34.70,-39.43 32.98,-39.21 31.26,-39.00 29.14,-38.47 27.02,-37.95 25.37,-37.36 23.73,-36.78 21.95,-36.10 20.17,-35.43 17.94,-34.49 15.72,-33.55 13.57,-32.85 11.42,-32.15 9.59,-31.11 7.76,-30.06 6.04,-28.86 4.32,-27.66 3.26,-27.06 2.20,-26.45 1.10,-25.75 0.01,-25.05 -0.14,-24.93 -0.29,-24.82 -0.47,-24.75 -0.65,-24.68 -0.84,-24.65 -1.03,-24.62 -1.22,-24.64 -1.41,-24.66 -1.59,-24.73 -1.77,-24.79 -1.93,-24.90 -2.09,-25.00 -2.22,-25.14 -2.36,-25.28 -2.45,-25.45 -2.54,-25.62 -2.59,-25.80 -2.64,-25.99 -2.65,-26.18 -2.65,-26.37 -2.61,-26.56 -2.57,-26.75 -2.48,-26.92 -2.39,-27.09 -2.27,-27.24 -2.15,-27.39 -2.27,-27.38 -2.39,-27.38 -1.63,-28.25 -0.86,-29.12 -0.02,-29.85 0.82,-30.58 2.14,-31.60 3.45,-32.61 5.01,-33.50 6.57,-34.39 7.98,-35.01 9.39,-35.62 11.42,-36.39 13.44,-37.15 15.81,-37.44 18.17,-37.73 19.99,-37.70 21.80,-37.68 23.28,-37.61 24.76,-37.54 26.21,-37.32 27.66,-37.10 28.38,-36.77 29.11,-36.44 29.83,-36.16 30.56,-35.89 31.24,-35.25 31.92,-34.61 32.24,-33.85 32.56,-33.10 33.43,-31.77 34.30,-30.45 35.50,-28.27 36.69,-26.08 38.27,-24.20 39.84,-22.33 41.56,-20.58 43.28,-18.84 44.53,-17.52 45.78,-16.21 46.65,-15.18 47.51,-14.15 47.87,-13.51 48.22,-12.88 48.69,-12.33 49.16,-11.78 49.23,-11.61 49.30,-11.43 49.32,-11.24 49.35,-11.05 49.33,-10.86 49.31,-10.67 49.24,-10.50 49.18,-10.32 49.07,-10.16 48.97,-10.00 48.83,-9.87 48.69,-9.74 48.52,-9.65 48.35,-9.56 48.17,-9.51 47.98,-9.47 47.79,-9.46 47.60,-9.46 47.42,-9.50 47.23,-9.55 47.06,-9.63 46.89,-9.72 46.75,-9.84 46.61,-9.97 46.50,-10.12 46.39,-10.27 45.85,-10.73 45.31,-11.18 44.71,-12.28 44.11,-13.37 43.42,-14.53 42.74,-15.69 41.76,-17.11 40.79,-18.52 39.81,-19.91 38.82,-21.29 38.12,-22.78 37.41,-24.26 36.27,-25.99 35.13,-27.72 34.65,-28.77 34.18,-29.82 33.98,-30.54 33.77,-31.26 32.91,-32.12 32.06,-32.97 31.76,-33.45 31.46,-33.93 30.66,-34.06 29.85,-34.19 28.81,-34.51 27.77,-34.84 26.61,-34.98 25.44,-35.12 23.70,-34.76 21.96,-34.40 19.58,-33.43 17.20,-32.47 14.63,-31.69 12.06,-30.90 9.35,-29.69 6.63,-28.49 3.55,-26.97 0.48,-25.44 -1.73,-24.73 -3.96,-24.02 -5.84,-24.07 -7.73,-24.12 -7.91,-24.09 -8.09,-24.06 -8.28,-24.07 -8.46,-24.08 -8.64,-24.14 -8.81,-24.20 -8.97,-24.30 -9.12,-24.39 -9.25,-24.53 -9.38,-24.66 -9.47,-24.82 -9.57,-24.98 -9.62,-25.15 -9.67,-25.33 -9.68,-25.51 -9.69,-25.70 -9.65,-25.88 -9.62,-26.06 -9.54,-26.23 -9.46,-26.39 -9.35,-26.54 -9.23,-26.68 -9.08,-26.79 -8.94,-26.90 -8.77,-26.98 -8.60,-27.05 -7.84,-27.57 -7.08,-28.09 -5.20,-28.65 -3.31,-29.21 -0.49,-29.76 2.32,-30.31 4.79,-30.93 7.27,-31.54 9.72,-32.32 12.18,-33.11 13.64,-33.51 15.10,-33.92 16.20,-34.16 17.29,-34.41 17.45,-34.50 17.60,-34.59 17.78,-34.65 17.95,-34.70 18.13,-34.71 18.31,-34.73 18.49,-34.69 18.67,-34.66 18.84,-34.59 19.00,-34.51 19.15,-34.40 19.29,-34.29 19.40,-34.14 19.51,-34.00 19.59,-33.84 19.66,-33.67 19.70,-33.49 19.73,-33.31 19.72,-33.13 19.71,-32.95 19.65,-32.78 19.60,-32.60 19.51,-32.45 19.41,-32.29 19.28,-32.16 19.16,-32.03 18.55,-32.07 17.95,-32.12 17.45,-31.57 16.96,-31.03 15.64,-30.65 14.32,-30.27 12.37,-29.29 10.43,-28.30 8.54,-27.34 6.65,-26.37 4.45,-25.57 2.26,-24.78 0.67,-24.32 -0.91,-23.86 -2.51,-23.50 -4.11,-23.14 -5.05,-23.01 -5.98,-22.88 -6.16,-22.90 -6.34,-22.92 -6.51,-22.99 -6.68,-23.05 -6.83,-23.15 -6.98,-23.25 -7.10,-23.38 -7.22,-23.52 -7.30,-23.68 -7.39,-23.84 -7.43,-24.01 -7.48,-24.19 -7.48,-24.37 -7.48,-24.55 -7.44,-24.72 -7.40,-24.90 -7.31,-25.06 -7.23,-25.22 -7.11,-25.35 -6.99,-25.49 -6.85,-25.59 -6.70,-25.69 -6.53,-25.76 -6.36,-25.82 -6.18,-25.85 -6.01,-25.87 -5.48,-25.33 -4.94,-24.79 -3.85,-25.00 -2.76,-25.21 -0.84,-25.93 1.07,-26.65 3.49,-27.61 5.90,-28.58 7.64,-29.59 9.38,-30.61 11.28,-31.54 13.19,-32.48 14.87,-33.29 16.56,-34.10 17.49,-34.47 18.43,-34.84 18.91,-35.14 19.39,-35.44 19.40,-34.74 19.41,-34.05 18.45,-33.96 17.48,-33.88 16.06,-34.00 14.64,-34.12 12.93,-34.39 11.22,-34.66 9.74,-34.61 8.25,-34.55 6.84,-34.44 5.43,-34.32 3.87,-34.00 2.31,-33.68 1.07,-33.67 -0.16,-33.65 -1.66,-33.62 -3.17,-33.59 -4.53,-33.53 -5.90,-33.46 -6.48,-33.28 -7.07,-33.10 -7.32,-32.08 -7.58,-31.06 -7.06,-30.04 -6.55,-29.02 -6.05,-28.06 -5.55,-27.10 -5.21,-26.43 -4.87,-25.76 -4.30,-25.35 -3.73,-24.94 -3.09,-24.88 -2.45,-24.83 -1.32,-24.45 -0.19,-24.07 0.45,-23.52 1.09,-22.97 1.88,-22.37 2.67,-21.77 4.13,-20.81 5.59,-19.84 6.45,-18.72 7.30,-17.61 8.84,-16.10 10.38,-14.60 11.68,-12.73 12.98,-10.85 14.66,-8.50 16.34,-6.15 18.15,-3.50 19.96,-0.85 22.21,2.02 24.45,4.89 26.20,7.40 27.94,9.91 29.90,12.95 31.86,15.99 34.38,19.66 36.90,23.34 38.70,25.79 40.51,28.24 41.85,30.36 43.20,32.49 44.37,34.13 45.53,35.78 45.94,36.76 46.36,37.75 46.45,37.91 46.54,38.06 46.59,38.24 46.64,38.41 46.64,38.59 46.65,38.77 46.62,38.95 46.58,39.12 46.50,39.29 46.42,39.45 46.31,39.59 46.19,39.73 46.05,39.84 45.91,39.94 45.74,40.02 45.57,40.09 45.40,40.11 45.22,40.14 45.04,40.13 44.86,40.11 44.69,40.06 44.52,40.00 44.36,39.90 44.21,39.80 44.09,39.67 43.96,39.54 43.04,38.42 42.12,37.29 40.76,35.44 39.39,33.59 37.30,31.74 35.20,29.88 33.15,27.70 31.11,25.52 29.17,23.28 27.24,21.03 25.40,19.16 23.56,17.28 22.03,15.67 20.50,14.06 18.97,12.30 17.43,10.53 16.76,9.06 16.09,7.58 16.01,7.42 15.93,7.26 15.89,7.08 15.86,6.91 15.86,6.73 15.87,6.55 15.91,6.37 15.96,6.20 16.05,6.04 16.14,5.88 16.26,5.75 16.39,5.62 16.54,5.52 16.69,5.42 16.86,5.36 17.03,5.31 17.21,5.29 17.39,5.27 17.57,5.30 17.75,5.32 17.91,5.39 18.08,5.46 18.22,5.57 18.37,5.68 18.49,5.81 18.60,5.95 19.14,6.32 19.67,6.69 20.19,7.51 20.72,8.33 21.42,9.08 22.12,9.82 23.08,10.90 24.04,11.98 24.83,13.05 25.63,14.12 26.78,15.92 27.93,17.73 29.13,20.38 30.33,23.02 31.70,26.35 33.08,29.68 34.96,33.43 36.85,37.18 39.22,41.87 41.58,46.55 42.90,49.78 44.23,53.01 45.20,55.61 46.17,58.21 47.06,60.16 47.95,62.12 48.58,63.48 49.21,64.84 49.33,64.24 49.44,63.65 49.62,62.24 49.80,60.84 49.56,58.67 49.32,56.51 48.71,54.64 48.10,52.77 47.33,51.04 46.56,49.32 45.40,47.26 44.24,45.20 42.90,43.13 41.56,41.05 39.71,38.84 37.86,36.62 35.58,34.17 33.31,31.73 30.62,29.33 27.92,26.93 25.14,24.15 22.37,21.37 19.34,18.32 16.30,15.28 13.96,12.87 11.61,10.46 10.80,8.88 9.99,7.31 9.85,7.20 9.71,7.08 9.60,6.94 9.49,6.80 9.42,6.63 9.35,6.46 9.32,6.29 9.29,6.11 9.30,5.93 9.31,5.75 9.37,5.58 9.43,5.40 9.52,5.25 9.62,5.10 9.75,4.97 9.88,4.85 10.03,4.76 10.19,4.66 10.36,4.61 10.53,4.56 10.72,4.55 10.90,4.55 11.07,4.58 11.25,4.62 11.41,4.69 11.58,4.77 11.64,4.63 11.70,4.50 12.80,5.09 13.90,5.69 14.90,6.75 15.89,7.81 17.53,9.62 19.16,11.42 20.89,13.55 22.62,15.68 24.54,18.53 26.46,21.38 28.11,24.46 29.75,27.54 31.46,31.19 33.17,34.84 35.15,38.64 37.13,42.43 38.97,46.42 40.81,50.40 42.29,54.08 43.77,57.76 45.18,60.85 46.58,63.95 47.70,66.24 48.83,68.52 49.26,69.24 49.69,69.97 50.75,70.42 51.82,70.88 51.84,71.06 51.85,71.24 51.83,71.42 51.80,71.59 51.73,71.76 51.67,71.93 51.56,72.07 51.46,72.22 51.32,72.34 51.18,72.45 51.02,72.53 50.86,72.61 50.68,72.65 50.51,72.69 50.33,72.69 50.15,72.68 49.98,72.63 49.80,72.59 49.64,72.50 49.49,72.41 49.36,72.29 49.22,72.17 49.12,72.02 49.03,71.87 48.97,71.70 48.91,71.53 48.71,70.04 48.51,68.56 48.08,66.57 47.64,64.58 46.54,61.74 45.44,58.90 44.27,55.77 43.10,52.64 41.71,49.40 40.32,46.16 38.50,42.12 36.67,38.08 34.38,34.66 32.09,31.25 29.40,27.98 26.70,24.70 23.89,21.23 21.09,17.77 19.27,15.78 17.46,13.79 16.09,12.05 14.72,10.30 13.47,8.81 12.23,7.33 11.47,5.65 10.72,3.97 10.64,3.80 10.56,3.64 10.53,3.47 10.49,3.29 10.50,3.11 10.51,2.93 10.56,2.76 10.61,2.59 10.70,2.44 10.78,2.28 10.91,2.15 11.03,2.02 11.18,1.93 11.33,1.83 11.50,1.77 11.67,1.72 11.85,1.70 12.03,1.69 12.21,1.72 12.38,1.75 12.55,1.82 12.71,1.89 12.86,1.99 13.00,2.10 13.11,2.24 13.23,2.38 13.44,2.30 13.65,2.23 14.79,3.84 15.92,5.44 17.51,7.66 19.11,9.88 21.39,13.61 23.68,17.34 25.59,20.60 27.50,23.85 29.08,27.75 30.66,31.65 32.29,35.28 33.92,38.91 35.70,42.61 37.47,46.31 38.84,49.41 40.21,52.52 41.30,55.56 42.39,58.60 42.78,59.94 43.17,61.28 43.57,62.06 43.97,62.84 44.00,63.02 44.04,63.19 44.03,63.37 44.01,63.54 43.96,63.71 43.91,63.88 43.82,64.03 43.73,64.19 43.60,64.31 43.48,64.44 43.33,64.53 43.17,64.62 43.00,64.67 42.84,64.73 42.66,64.74 42.48,64.75 42.31,64.72 42.13,64.68 41.97,64.61 41.81,64.54 41.67,64.43 41.53,64.32 41.42,64.18 41.31,64.04 41.24,63.88 41.16,63.72 41.29,63.12 41.42,62.51 40.99,61.16 40.57,59.81 40.34,58.27 40.12,56.73 39.52,54.93 38.92,53.14 38.20,51.01 37.48,48.88 36.49,45.98 35.50,43.07 34.60,40.51 33.70,37.96 32.22,35.28 30.73,32.60 28.53,29.62 26.34,26.65 24.64,24.52 22.93,22.39 21.02,20.16 19.11,17.93 17.43,16.19 15.75,14.44 13.60,12.88 11.44,11.31 10.05,9.89 8.67,8.48 7.48,7.18 6.28,5.89 6.20,5.74 6.13,5.59 6.09,5.42 6.05,5.25 6.05,5.08 6.05,4.92 6.09,4.75 6.13,4.59 6.22,4.44 6.30,4.29 6.41,4.16 6.52,4.04 6.66,3.94 6.80,3.84 6.96,3.79 7.12,3.73 7.29,3.71 7.46,3.69 7.63,3.71 7.80,3.73 7.96,3.80 8.11,3.86 8.25,3.96 8.39,4.05 8.50,4.18 8.61,4.31 8.77,4.98 8.92,5.66 9.92,7.14 10.92,8.63 12.66,10.84 14.40,13.05 16.41,15.48 18.41,17.92 20.41,20.21 22.40,22.51 24.24,25.05 26.08,27.59 27.53,29.96 28.98,32.33 30.15,34.24 31.31,36.15 32.38,36.88 33.45,37.61 34.10,38.36 34.75,39.10 34.75,39.26 34.76,39.42 34.72,39.57 34.69,39.73 34.62,39.88 34.55,40.02 34.45,40.14 34.34,40.27 34.22,40.36 34.09,40.46 33.94,40.52 33.79,40.58 33.63,40.61 33.47,40.63 33.31,40.62 33.15,40.60 33.00,40.55 32.85,40.50 32.71,40.41 32.58,40.32 32.47,40.21 32.36,40.09 32.28,39.95 32.20,39.81 32.16,39.66 32.11,39.50 32.36,38.78 32.61,38.05 32.49,37.21 32.36,36.37 32.11,35.08 31.85,33.78 31.10,32.46 30.34,31.14 29.20,29.36 28.06,27.57 26.82,25.57 25.58,23.57 23.30,20.86 21.01,18.15 17.59,15.17 14.18,12.19 6.81,6.46 -0.55,0.73 -0.63,0.65 -0.71,0.58 -0.77,0.48 -0.83,0.39 -0.87,0.28 -0.90,0.18 -0.91,0.06 -0.92,-0.04 -0.90,-0.15 -0.88,-0.26 -0.84,-0.36 -0.79,-0.46 -0.73,-0.55 -0.66,-0.64 -0.57,-0.71 -0.49,-0.78 -0.38,-0.83 -0.28,-0.87 -0.17,-0.90 -0.06,-0.92 0.04,-0.91 0.15,-0.91 0.26,-0.88 0.36,-0.84 0.46,-0.79 0.55,-0.73 0.55,-0.73 L 0.55,-0.73 Z"/></g></svg>